<svg xmlns="http://www.w3.org/2000/svg" xml:space="preserve" width="721.77" height="424.457" viewBox="0 0 190.968 112.304"><g fill="currentColor" style="fill-opacity:0;stroke-width:5.51856;stroke-dasharray:none"><path d="M-7.046 2212.814C12.954 2574.814 118 2944 295 3305c230 468 559 847 980 1130 77 51 176 112 220 134 225 112 529.381 221.269 1271.173 215.513" style="fill:#d4aa00;fill-opacity:0;stroke:#000;stroke-width:5.51856;stroke-dasharray:none;stroke-opacity:1" transform="matrix(.02077 0 0 -.02353 .204 112.665)"/><path d="M2760 4783c727-31 1546-234 2456-608 115-48 310-127 434-177 989-397 1889-915 2605-1498 198-162 539-504 651-655 164-220 252-402 273-567" style="fill:#d4aa00;fill-opacity:0;stroke:#000;stroke-width:5.51856;stroke-dasharray:none;stroke-opacity:1" transform="matrix(.02077 0 0 -.02353 .204 112.665)"/><path d="M2325 4763c-327-29-625-105-830-209-49-25-146-84-215-130-551-369-983-965-1163-1604-68-241-96.364-362-103.364-597C7.636 2008 28 1870 66 1703c23-103 117.265-415.598 63.537-231.42C81.258 1655.184 73 1928 81 2058c55 861 581 1723 1342 2200 288 181 694 285 1147 293 222 4 866-9 995-21 448-40 960-149 1480-314 60-19 455.666-169.978 456.666-167.978 5 5-707.666 280.978-871.666 336.978-579 199-1184 334-1673 374-118 10-538 13-632 4z" style="fill:#d4aa00;fill-opacity:0;stroke:#000;stroke-width:5.51856;stroke-dasharray:none;stroke-opacity:1" transform="matrix(.02077 0 0 -.02353 .204 112.665)"/><path d="M2310 4525c-316-35-598-115-795-227-494-280-916-741-1166-1274-108-231-194-505-236-754-14-81-18-162-18-355 0-343 20-436 138-652 95-175 238-342 360-420 114.478-64 292.764-132.077 471.764-195.983l60.423-18.65L1033 714c-332.095 320.96-543 1124-347 1837 100 365 297 750 540 1056 101 127 273 303 399 410 119 100 348 255 460 312 164 83 444 160 715 195l326.944 14H2665c-132 0-292-6-355-13z" style="fill:#d4aa00;fill-opacity:0;stroke:#000;stroke-width:5.51856;stroke-dasharray:none;stroke-opacity:1" transform="matrix(.02077 0 0 -.02353 .204 112.665)"/><path d="M2910 4523c-294-23-624-106-824-209-298-152-634-437-869-739-294-377-482-790-573-1260-25-129-28-160-28-395-1-208 3-274 18-355 63-345 206-635 421-856 37-38 79-71.93 94-79.93 63-32 436-118.07 776-175.07 489-81 977-131 1695-175 280-17 1289-23 1606-10 1232 51 2166 220 2734 492 387 187 601 413 618 656 4 65 2 78-27 138-186 398-751 940-1491 1430-1231 815-2697 1392-3880 1529-130 15-171 17-270 9z" style="fill:#d4aa00;fill-opacity:0;stroke:#000;stroke-width:5.51856;stroke-dasharray:none;stroke-opacity:1" transform="matrix(.02077 0 0 -.02353 .204 112.665)"/><path d="M3137.01 4536.806C4161.01 4395.806 5411 3966 6515 3335c634-363 1155-745 1551-1140 249-248 395.628-439.053 483.628-610.053 58.729-132.027 28.271 2.956-47.814 169C8350.814 2078.947 7931 2535 7370 2954c-548 409-1455 926-1985 1131-658 255-1571 449-2083 444-113-1-336.944 12.245-164.99 7.806z" style="fill:#d4aa00;fill-opacity:0;stroke:#000;stroke-width:5.51856;stroke-dasharray:none;stroke-opacity:1" transform="matrix(.02077 0 0 -.02353 .204 112.665)"/><path d="M5835 3894c736-368 1306-727 1830-1154 198-161 539-504 651-655 144-193 260.07-434.182 289.528-569.146 8-37-16.916 70.97 6.185-20.485 33-111 40.287-196.369 40.287-279.369-1-145-73-286-217-424-99-96-189-159-329-233C7563 273 6609 87 5395 31l-383.19-5.253L5420 22c798-7 1833 106 2464 268 698 179 1135 442 1257 758 29 76 36 205 15 293-168 720-1566 1811-3254 2540-101 43-396.855 168.46-400.855 167.46-4 0 262.855-118.46 333.855-154.46Z" style="fill:#d4aa00;fill-opacity:0;stroke:#000;stroke-width:5.51856;stroke-dasharray:none;stroke-opacity:1" transform="matrix(.02077 0 0 -.02353 .204 112.665)"/><path d="M5277.475 25.79C4887.475 30.79 3808 32 3570 45 2290 119 1252 305 760 547c-126 62-141 73-231 162-148 149-293.459 432.759-362.459 638.759-33.154 76.616-57.633 144.27-77.632 204.939-6.471 19.63-12.474 38.53-18.15 56.764-51.366 165.032-90.675 513.726-71.536 655.6" style="fill:#d4aa00;fill-opacity:0;stroke:#000;stroke-width:5.51856;stroke-dasharray:none;stroke-opacity:1" transform="matrix(.02077 0 0 -.02353 .204 112.665)"/><path d="M8579.15 1531.19C8608.68 1373.95 8552 1251 8505 1174c-53-84-191-220-292-287-381-253-1006-434-1863-541-1249-156-2935-129-4258 70-310 46-800.444 130.08-960.267 206.314C1085.19 650.556 1258.847 555.017 1364 509 1912 277 2921.233 92.8 4206.233 23.8c117.5-6.445 336.274-5.645 548.477-5.699C4970.522 18.046 5193.777 33.445 5340 40c1585 71 2720.427 341 3145.427 771 177 179 204.744 346.009 156.744 554.009-27.357 85.03-72.839 218.467-63.02 166.18z" style="fill:#d4aa00;fill-opacity:0;stroke:#000;stroke-width:5.51856;stroke-dasharray:none;stroke-opacity:1" transform="matrix(.02077 0 0 -.02353 .204 112.665)"/><path d="M130.239 1466.646c0-23 133.176-334.072 164.761-421.646 86-157 273.018-320.406 373.018-395.406C905.018 473.594 1484 290 2305 176c383-54 1006-110 1320-120l489.35-22.973L3575 70c-869 80-1565 202-2025 356-74 24-198 76-275 113-77 38-210 92-295 120-85 29-216 81-290 117-126 62-140 72-230 163-99 100-192 226-254 346-6.585 8.323-75.761 188.646-75.761 181.646zM9179.847 1296.871c-3 0 8.006-100.717.153-136.871-12.848-59.154-38-149-85-226-53-84-191-220-292-287C8244 276 6332.54 68.163 4844.54 29.163" style="fill:#d4aa00;fill-opacity:0;stroke:#000;stroke-width:5.51856;stroke-dasharray:none;stroke-opacity:1" transform="matrix(.02077 0 0 -.02353 .204 112.665)"/></g></svg>