<svg xmlns="http://www.w3.org/2000/svg" viewBox="0 0 919 479" fill="none">
  <path d="M0.0,210.0 C-1.2,227.7 -1.2,297.3 0.0,315.0 C1.2,332.7 3.7,308.7 7.0,316.0 C10.3,323.3 15.0,346.7 20.0,359.0 C25.0,371.3 30.7,380.8 37.0,390.0 C43.3,399.2 50.3,407.7 58.0,414.0 C65.7,420.3 71.3,423.2 83.0,428.0 C94.7,432.8 111.3,438.5 128.0,443.0 C144.7,447.5 162.8,451.3 183.0,455.0 C203.2,458.7 226.5,462.3 249.0,465.0 C271.5,467.7 306.3,468.8 318.0,471.0 C329.7,473.2 261.8,476.8 319.0,478.0 C376.2,479.2 603.8,479.2 661.0,478.0 C718.2,476.8 648.3,473.8 662.0,471.0 C675.7,468.2 720.5,464.7 743.0,461.0 C765.5,457.3 782.7,452.7 797.0,449.0 C811.3,445.3 816.2,444.2 829.0,439.0 C841.8,433.8 863.5,423.7 874.0,418.0 C884.5,412.3 885.7,411.2 892.0,405.0 C898.3,398.8 907.7,385.0 912.0,381.0 C916.3,377.0 917.0,389.5 918.0,381.0 C919.0,372.5 919.2,338.7 918.0,330.0 C916.8,321.3 913.5,332.0 911.0,329.0 C908.5,326.0 907.2,318.8 903.0,312.0 C898.8,305.2 895.0,298.5 886.0,288.0 C877.0,277.5 859.2,259.0 849.0,249.0 C838.8,239.0 842.2,241.0 825.0,228.0 C807.8,215.0 771.2,187.5 746.0,171.0 C720.8,154.5 700.7,143.0 674.0,129.0 C647.3,115.0 615.0,99.8 586.0,87.0 C557.0,74.2 525.3,61.7 500.0,52.0 C474.7,42.3 454.3,35.3 434.0,29.0 C413.7,22.7 394.0,17.7 378.0,14.0 C362.0,10.3 344.8,9.3 338.0,7.0 C331.2,4.7 360.8,1.2 337.0,0.0 C313.2,-1.2 218.8,-1.2 195.0,0.0 C171.2,1.2 200.2,4.2 194.0,7.0 C187.8,9.8 168.3,13.0 158.0,17.0 C147.7,21.0 142.8,23.7 132.0,31.0 C121.2,38.3 106.0,48.7 93.0,61.0 C80.0,73.3 63.0,93.8 54.0,105.0 C45.0,116.2 44.2,119.0 39.0,128.0 C33.8,137.0 27.8,148.0 23.0,159.0 C18.2,170.0 12.7,185.7 10.0,194.0 C7.3,202.3 8.7,206.3 7.0,209.0 C5.3,211.7 1.2,192.3 0.0,210.0 Z" stroke="#ffcc00" stroke-width="2" fill="none"/>
  <path d="M61.0,264.0 C62.5,248.5 65.0,235.2 70.0,219.0 C75.0,202.8 82.2,183.8 91.0,167.0 C99.8,150.2 112.5,131.7 123.0,118.0 C133.5,104.3 142.0,95.7 154.0,85.0 C166.0,74.3 183.5,61.5 195.0,54.0 C206.5,46.5 210.3,44.3 223.0,40.0 C235.7,35.7 256.2,30.3 271.0,28.0 C285.8,25.7 292.5,24.2 312.0,26.0 C331.5,27.8 360.2,32.3 388.0,39.0 C415.8,45.7 448.2,55.0 479.0,66.0 C509.8,77.0 542.8,90.8 573.0,105.0 C603.2,119.2 633.0,135.2 660.0,151.0 C687.0,166.8 712.8,184.0 735.0,200.0 C757.2,216.0 778.7,234.5 793.0,247.0 C807.3,259.5 812.8,266.0 821.0,275.0 C829.2,284.0 836.0,292.3 842.0,301.0 C848.0,309.7 854.5,320.0 857.0,327.0 C859.5,334.0 858.0,337.8 857.0,343.0 C856.0,348.2 853.2,353.8 851.0,358.0 C848.8,362.2 847.3,364.2 844.0,368.0 C840.7,371.8 836.5,376.5 831.0,381.0 C825.5,385.5 819.2,390.3 811.0,395.0 C802.8,399.7 792.0,404.8 782.0,409.0 C772.0,413.2 767.5,415.5 751.0,420.0 C734.5,424.5 710.0,431.3 683.0,436.0 C656.0,440.7 620.7,445.2 589.0,448.0 C557.3,450.8 526.8,452.3 493.0,453.0 C459.2,453.7 421.5,453.3 386.0,452.0 C350.5,450.7 316.7,448.8 280.0,445.0 C243.3,441.2 193.0,433.5 166.0,429.0 C139.0,424.5 127.2,420.5 118.0,418.0 C108.8,415.5 115.3,418.2 111.0,414.0 C106.7,409.8 97.2,399.7 92.0,393.0 C86.8,386.3 83.5,380.5 80.0,374.0 C76.5,367.5 74.2,364.3 71.0,354.0 C67.8,343.7 62.7,327.0 61.0,312.0 C59.3,297.0 59.5,279.5 61.0,264.0 Z" stroke="#ffcc00" stroke-width="2" fill="none"/>
  <path d="M208.0,32.0 C210.5,34.2 213.3,40.2 209.0,45.0 C204.7,49.8 190.2,55.5 182.0,61.0 C173.8,66.5 170.5,68.0 160.0,78.0 C149.5,88.0 130.0,107.5 119.0,121.0 C108.0,134.5 101.5,145.3 94.0,159.0 C86.5,172.7 79.3,188.2 74.0,203.0 C68.7,217.8 64.5,236.5 62.0,248.0 C59.5,259.5 59.5,262.8 59.0,272.0 C58.5,281.2 57.7,290.7 59.0,303.0 C60.3,315.3 64.0,334.7 67.0,346.0 C70.0,357.3 73.3,363.7 77.0,371.0 C80.7,378.3 87.0,384.8 89.0,390.0 C91.0,395.2 91.8,400.0 89.0,402.0 C86.2,404.0 78.2,404.0 72.0,402.0 C65.8,400.0 57.8,394.7 52.0,390.0 C46.2,385.3 41.5,379.5 37.0,374.0 C32.5,368.5 29.2,364.5 25.0,357.0 C20.8,349.5 14.8,338.5 12.0,329.0 C9.2,319.5 8.5,311.2 8.0,300.0 C7.5,288.8 8.0,273.2 9.0,262.0 C10.0,250.8 11.5,243.3 14.0,233.0 C16.5,222.7 19.7,211.5 24.0,200.0 C28.3,188.5 34.2,175.2 40.0,164.0 C45.8,152.8 52.0,143.0 59.0,133.0 C66.0,123.0 74.7,112.3 82.0,104.0 C89.3,95.7 94.7,90.3 103.0,83.0 C111.3,75.7 122.0,66.8 132.0,60.0 C142.0,53.2 152.7,46.7 163.0,42.0 C173.3,37.3 186.5,33.7 194.0,32.0 C201.5,30.3 205.5,29.8 208.0,32.0 Z" stroke="#ffcc00" stroke-width="2" fill="none"/>
</svg>