<svg xmlns="http://www.w3.org/2000/svg" viewBox="0 0 919 479" fill="none">
  <path class="ellipse3" d="M856.0,257.0 C861.3,262.0 867.0,266.8 872.0,272.0 C877.0,277.2 881.7,282.3 886.0,288.0 C890.3,293.7 894.2,300.0 898.0,306.0 C901.8,312.0 905.8,315.0 909.0,324.0 C912.2,333.0 916.3,351.2 917.0,360.0 C917.7,368.8 915.2,371.5 913.0,377.0 C910.8,382.5 907.8,388.2 904.0,393.0 C900.2,397.8 895.0,401.8 890.0,406.0 C885.0,410.2 879.8,414.3 874.0,418.0 C868.2,421.7 861.7,425.0 855.0,428.0 C848.3,431.0 841.0,433.3 834.0,436.0 C827.0,438.7 820.0,441.8 813.0,444.0 C806.0,446.2 798.8,447.2 792.0,449.0 C785.2,450.8 778.5,453.3 772.0,455.0 C765.5,456.7 759.3,457.8 753.0,459.0 C746.7,460.2 740.2,461.0 734.0,462.0 C727.8,463.0 721.8,464.2 716.0,465.0 C710.2,465.8 704.5,466.3 699.0,467.0 C693.5,467.7 688.2,468.3 683.0,469.0 C677.8,469.7 673.2,470.5 668.0,471.0 C662.8,471.5 656.8,471.7 652.0,472.0 C647.2,472.3 643.3,472.7 639.0,473.0 C634.7,473.3 630.3,473.7 626.0,474.0 C621.7,474.3 617.2,474.7 613.0,475.0 C608.8,475.3 605.0,475.7 601.0,476.0 C597.0,476.3 592.8,476.8 589.0,477.0 C585.2,477.2 581.7,477.0 578.0,477.0 C574.3,477.0 572.2,476.8 567.0,477.0 C561.8,477.2 584.5,478.7 547.0,478.0 C509.5,477.3 377.7,473.8 342.0,473.0 C306.3,472.2 336.0,473.2 333.0,473.0 C330.0,472.8 327.0,472.3 324.0,472.0 C321.0,471.7 318.0,471.3 315.0,471.0 C312.0,470.7 309.2,470.2 306.0,470.0 C302.8,469.8 299.3,470.2 296.0,470.0 C292.7,469.8 289.3,469.3 286.0,469.0 C282.7,468.7 279.3,468.5 276.0,468.0 C272.7,467.5 269.5,466.5 266.0,466.0 C262.5,465.5 258.8,465.3 255.0,465.0 C251.2,464.7 247.0,464.5 243.0,464.0 C239.0,463.5 235.0,462.7 231.0,462.0 C227.0,461.3 223.2,460.7 219.0,460.0 C214.8,459.3 210.5,458.7 206.0,458.0 C201.5,457.3 196.8,456.7 192.0,456.0 C187.2,455.3 182.0,454.8 177.0,454.0 C172.0,453.2 166.8,452.2 162.0,451.0 C157.2,449.8 153.2,448.3 148.0,447.0 C142.8,445.7 136.5,444.5 131.0,443.0 C125.5,441.5 126.0,442.0 115.0,438.0 C104.0,434.0 75.3,423.8 65.0,419.0 C54.7,414.2 56.7,412.7 53.0,409.0 C49.3,405.3 46.2,401.0 43.0,397.0 C39.8,393.0 36.8,389.2 34.0,385.0 C31.2,380.8 28.3,376.3 26.0,372.0 C23.7,367.7 23.8,370.8 20.0,359.0 C16.2,347.2 6.2,313.2 3.0,301.0 C-0.2,288.8 1.5,290.8 1.0,286.0 C0.5,281.2 0.2,276.8 0.0,272.0 C-0.2,267.2 -0.2,262.0 0.0,257.0 C0.2,252.0 0.5,247.0 1.0,242.0 C1.5,237.0 2.2,232.0 3.0,227.0 C3.8,222.0 4.8,217.0 6.0,212.0 C7.2,207.0 8.7,201.8 10.0,197.0 C11.3,192.2 12.5,187.7 14.0,183.0 C15.5,178.3 17.2,173.5 19.0,169.0 C20.8,164.5 22.8,160.5 25.0,156.0 C27.2,151.5 29.7,146.5 32.0,142.0 C34.3,137.5 36.7,133.2 39.0,129.0 C41.3,124.8 43.5,121.0 46.0,117.0 C48.5,113.0 51.0,108.8 54.0,105.0 C57.0,101.2 60.8,97.7 64.0,94.0 C67.2,90.3 70.0,86.7 73.0,83.0 C76.0,79.3 78.7,75.5 82.0,72.0 C85.3,68.5 89.5,65.3 93.0,62.0 C96.5,58.7 99.5,55.0 103.0,52.0 C106.5,49.0 110.2,46.7 114.0,44.0 C117.8,41.3 122.0,38.7 126.0,36.0 C130.0,33.3 134.2,30.5 138.0,28.0 C141.8,25.5 145.0,23.0 149.0,21.0 C153.0,19.0 157.7,17.7 162.0,16.0 C166.3,14.3 170.5,12.3 175.0,11.0 C179.5,9.7 184.3,9.0 189.0,8.0 C193.7,7.0 198.3,5.8 203.0,5.0 C207.7,4.2 212.5,3.7 217.0,3.0 C221.5,2.3 225.7,1.5 230.0,1.0 C234.3,0.5 238.7,0.2 243.0,0.0 C247.3,-0.2 243.7,-0.7 256.0,0.0 C268.3,0.7 305.0,3.0 317.0,4.0 C329.0,5.0 324.3,5.5 328.0,6.0 C331.7,6.5 335.5,6.5 339.0,7.0 C342.5,7.5 345.7,8.3 349.0,9.0 C352.3,9.7 355.7,10.5 359.0,11.0 C362.3,11.5 365.8,11.5 369.0,12.0 C372.2,12.5 375.0,13.2 378.0,14.0 C381.0,14.8 384.0,16.2 387.0,17.0 C390.0,17.8 393.0,18.3 396.0,19.0 C399.0,19.7 402.2,20.2 405.0,21.0 C407.8,21.8 410.3,23.3 413.0,24.0 C415.7,24.7 418.3,24.3 421.0,25.0 C423.7,25.7 426.3,27.2 429.0,28.0 C431.7,28.8 434.3,29.2 437.0,30.0 C439.7,30.8 442.3,32.2 445.0,33.0 C447.7,33.8 450.5,34.2 453.0,35.0 C455.5,35.8 457.5,37.0 460.0,38.0 C462.5,39.0 465.5,40.2 468.0,41.0 C470.5,41.8 472.7,42.2 475.0,43.0 C477.3,43.8 479.7,45.2 482.0,46.0 C484.3,46.8 486.7,47.2 489.0,48.0 C491.3,48.8 479.0,44.2 496.0,51.0 C513.0,57.8 573.8,82.0 591.0,89.0 C608.2,96.0 596.3,91.7 599.0,93.0 C601.7,94.3 604.3,95.7 607.0,97.0 C609.7,98.3 612.2,99.8 615.0,101.0 C617.8,102.2 621.0,102.7 624.0,104.0 C627.0,105.3 630.0,107.5 633.0,109.0 C636.0,110.5 639.0,111.5 642.0,113.0 C645.0,114.5 647.8,116.3 651.0,118.0 C654.2,119.7 657.7,121.3 661.0,123.0 C664.3,124.7 667.7,126.2 671.0,128.0 C674.3,129.8 677.5,132.0 681.0,134.0 C684.5,136.0 688.3,138.0 692.0,140.0 C695.7,142.0 699.2,143.8 703.0,146.0 C706.8,148.2 711.0,150.7 715.0,153.0 C719.0,155.3 722.8,157.5 727.0,160.0 C731.2,162.5 735.7,165.3 740.0,168.0 C744.3,170.7 748.7,173.2 753.0,176.0 C757.3,178.8 761.5,181.8 766.0,185.0 C770.5,188.2 775.3,191.7 780.0,195.0 C784.7,198.3 789.0,201.3 794.0,205.0 C799.0,208.7 804.8,213.0 810.0,217.0 C815.2,221.0 820.0,224.8 825.0,229.0 C830.0,233.2 834.8,237.3 840.0,242.0 C845.2,246.7 850.7,252.0 856.0,257.0 Z" stroke="currentColor" stroke-width="2" stroke-linecap="round" stroke-linejoin="round"/>
  <path class="ellipse2" d="M820.0,257.0 C823.8,261.7 827.3,266.3 831.0,271.0 C834.7,275.7 838.7,280.0 842.0,285.0 C845.3,290.0 848.5,295.7 851.0,301.0 C853.5,306.3 846.2,310.2 857.0,317.0 C867.8,323.8 914.8,336.7 916.0,342.0 C917.2,347.3 872.7,345.2 864.0,349.0 C855.3,352.8 864.8,359.8 864.0,365.0 C863.2,370.2 861.3,375.3 859.0,380.0 C856.7,384.7 853.5,388.8 850.0,393.0 C846.5,397.2 842.7,401.3 838.0,405.0 C833.3,408.7 827.3,411.8 822.0,415.0 C816.7,418.2 811.3,421.2 806.0,424.0 C800.7,426.8 795.7,429.5 790.0,432.0 C784.3,434.5 778.0,437.0 772.0,439.0 C766.0,441.0 759.8,442.3 754.0,444.0 C748.2,445.7 742.7,447.5 737.0,449.0 C731.3,450.5 725.3,451.7 720.0,453.0 C714.7,454.3 710.0,455.8 705.0,457.0 C700.0,458.2 695.2,459.2 690.0,460.0 C684.8,460.8 679.0,461.3 674.0,462.0 C669.0,462.7 664.7,463.3 660.0,464.0 C655.3,464.7 650.5,465.3 646.0,466.0 C641.5,466.7 637.2,467.5 633.0,468.0 C628.8,468.5 625.0,468.7 621.0,469.0 C617.0,469.3 612.8,469.5 609.0,470.0 C605.2,470.5 601.8,471.7 598.0,472.0 C594.2,472.3 589.8,471.8 586.0,472.0 C582.2,472.2 578.5,472.7 575.0,473.0 C571.5,473.3 568.2,473.5 565.0,474.0 C561.8,474.5 559.2,475.8 556.0,476.0 C552.8,476.2 549.2,475.0 546.0,475.0 C542.8,475.0 540.0,475.7 537.0,476.0 C534.0,476.3 531.0,476.8 528.0,477.0 C525.0,477.2 522.0,477.0 519.0,477.0 C516.0,477.0 513.0,477.0 510.0,477.0 C507.0,477.0 503.8,477.0 501.0,477.0 C498.2,477.0 495.7,477.0 493.0,477.0 C490.3,477.0 487.8,477.0 485.0,477.0 C482.2,477.0 478.8,476.8 476.0,477.0 C473.2,477.2 470.5,478.0 468.0,478.0 C465.5,478.0 463.5,477.2 461.0,477.0 C458.5,476.8 455.7,477.2 453.0,477.0 C450.3,476.8 447.7,476.0 445.0,476.0 C442.3,476.0 439.5,477.0 437.0,477.0 C434.5,477.0 432.5,476.0 430.0,476.0 C427.5,476.0 424.7,477.2 422.0,477.0 C419.3,476.8 416.7,475.2 414.0,475.0 C411.3,474.8 408.5,476.0 406.0,476.0 C403.5,476.0 401.5,475.2 399.0,475.0 C396.5,474.8 393.7,475.2 391.0,475.0 C388.3,474.8 385.7,474.2 383.0,474.0 C380.3,473.8 377.7,474.2 375.0,474.0 C372.3,473.8 369.7,473.3 367.0,473.0 C364.3,472.7 361.7,472.2 359.0,472.0 C356.3,471.8 353.7,472.3 351.0,472.0 C348.3,471.7 345.7,470.5 343.0,470.0 C340.3,469.5 337.8,469.3 335.0,469.0 C332.2,468.7 328.8,468.3 326.0,468.0 C323.2,467.7 320.8,467.3 318.0,467.0 C315.2,466.7 312.2,466.3 309.0,466.0 C305.8,465.7 302.2,465.3 299.0,465.0 C295.8,464.7 293.2,464.3 290.0,464.0 C286.8,463.7 283.3,463.5 280.0,463.0 C276.7,462.5 273.5,461.5 270.0,461.0 C266.5,460.5 262.7,460.5 259.0,460.0 C255.3,459.5 251.7,458.7 248.0,458.0 C244.3,457.3 240.8,456.7 237.0,456.0 C233.2,455.3 228.8,454.8 225.0,454.0 C221.2,453.2 218.2,451.8 214.0,451.0 C209.8,450.2 204.3,449.8 200.0,449.0 C195.7,448.2 192.3,447.2 188.0,446.0 C183.7,444.8 178.5,443.3 174.0,442.0 C169.5,440.7 165.5,439.5 161.0,438.0 C156.5,436.5 151.5,434.8 147.0,433.0 C142.5,431.2 142.3,427.0 134.0,427.0 C125.7,427.0 105.8,433.2 97.0,433.0 C88.2,432.8 82.7,430.0 81.0,426.0 C79.3,422.0 88.8,413.0 87.0,409.0 C85.2,405.0 75.3,404.7 70.0,402.0 C64.7,399.3 59.5,396.3 55.0,393.0 C50.5,389.7 46.7,385.8 43.0,382.0 C39.3,378.2 36.2,374.0 33.0,370.0 C29.8,366.0 26.8,362.3 24.0,358.0 C21.2,353.7 18.2,348.7 16.0,344.0 C13.8,339.3 12.3,334.7 11.0,330.0 C9.7,325.3 8.7,320.8 8.0,316.0 C7.3,311.2 7.2,306.0 7.0,301.0 C6.8,296.0 7.0,291.0 7.0,286.0 C7.0,281.0 6.7,275.8 7.0,271.0 C7.3,266.2 8.3,261.8 9.0,257.0 C9.7,252.2 10.0,247.0 11.0,242.0 C12.0,237.0 13.7,231.8 15.0,227.0 C16.3,222.2 17.7,217.7 19.0,213.0 C20.3,208.3 21.3,203.5 23.0,199.0 C24.7,194.5 27.0,190.3 29.0,186.0 C31.0,181.7 32.8,177.3 35.0,173.0 C37.2,168.7 39.7,164.3 42.0,160.0 C44.3,155.7 46.7,151.2 49.0,147.0 C51.3,142.8 53.3,138.8 56.0,135.0 C58.7,131.2 62.0,127.7 65.0,124.0 C68.0,120.3 71.0,116.7 74.0,113.0 C77.0,109.3 80.0,105.5 83.0,102.0 C86.0,98.5 88.8,95.2 92.0,92.0 C95.2,88.8 98.5,86.0 102.0,83.0 C105.5,80.0 109.5,77.0 113.0,74.0 C116.5,71.0 119.5,67.8 123.0,65.0 C126.5,62.2 130.2,59.5 134.0,57.0 C137.8,54.5 142.0,52.2 146.0,50.0 C150.0,47.8 154.0,45.8 158.0,44.0 C162.0,42.2 166.0,40.7 170.0,39.0 C174.0,37.3 177.7,35.3 182.0,34.0 C186.3,32.7 191.5,32.0 196.0,31.0 C200.5,30.0 204.7,28.8 209.0,28.0 C213.3,27.2 217.8,26.7 222.0,26.0 C226.2,25.3 229.7,24.3 234.0,24.0 C238.3,23.7 243.7,24.2 248.0,24.0 C252.3,23.8 256.0,23.2 260.0,23.0 C264.0,22.8 270.5,26.8 272.0,23.0 C273.5,19.2 267.5,3.8 269.0,0.0 C270.5,-3.8 276.8,-0.3 281.0,0.0 C285.2,0.3 289.8,1.5 294.0,2.0 C298.2,2.5 300.7,-0.7 306.0,3.0 C311.3,6.7 321.0,20.5 326.0,24.0 C331.0,27.5 332.8,23.8 336.0,24.0 C339.2,24.2 341.8,24.7 345.0,25.0 C348.2,25.3 352.0,25.8 355.0,26.0 C358.0,26.2 360.2,25.7 363.0,26.0 C365.8,26.3 369.0,27.7 372.0,28.0 C375.0,28.3 378.2,27.7 381.0,28.0 C383.8,28.3 386.2,29.5 389.0,30.0 C391.8,30.5 395.2,30.7 398.0,31.0 C400.8,31.3 403.3,31.5 406.0,32.0 C408.7,32.5 411.3,33.5 414.0,34.0 C416.7,34.5 419.5,34.5 422.0,35.0 C424.5,35.5 426.5,36.5 429.0,37.0 C431.5,37.5 434.3,37.5 437.0,38.0 C439.7,38.5 442.5,39.3 445.0,40.0 C447.5,40.7 449.7,41.3 452.0,42.0 C454.3,42.7 456.5,43.3 459.0,44.0 C461.5,44.7 464.5,45.3 467.0,46.0 C469.5,46.7 471.7,47.3 474.0,48.0 C476.3,48.7 478.7,49.3 481.0,50.0 C483.3,50.7 485.7,51.3 488.0,52.0 C490.3,52.7 492.5,53.5 495.0,54.0 C497.5,54.5 500.5,54.3 503.0,55.0 C505.5,55.7 507.7,57.2 510.0,58.0 C512.3,58.8 514.7,59.2 517.0,60.0 C519.3,60.8 521.7,62.2 524.0,63.0 C526.3,63.8 528.7,64.0 531.0,65.0 C533.3,66.0 535.7,68.0 538.0,69.0 C540.3,70.0 542.5,70.2 545.0,71.0 C547.5,71.8 550.7,72.8 553.0,74.0 C555.3,75.2 556.7,76.8 559.0,78.0 C561.3,79.2 564.5,80.0 567.0,81.0 C569.5,82.0 571.5,83.0 574.0,84.0 C576.5,85.0 579.7,85.7 582.0,87.0 C584.3,88.3 585.7,90.5 588.0,92.0 C590.3,93.5 593.5,94.7 596.0,96.0 C598.5,97.3 600.3,98.7 603.0,100.0 C605.7,101.3 609.3,102.7 612.0,104.0 C614.7,105.3 616.3,106.7 619.0,108.0 C621.7,109.3 625.2,110.5 628.0,112.0 C630.8,113.5 633.2,115.3 636.0,117.0 C638.8,118.7 642.2,120.3 645.0,122.0 C647.8,123.7 650.0,125.2 653.0,127.0 C656.0,128.8 659.7,131.2 663.0,133.0 C666.3,134.8 670.0,136.2 673.0,138.0 C676.0,139.8 678.0,141.8 681.0,144.0 C684.0,146.2 687.5,148.8 691.0,151.0 C694.5,153.2 698.5,154.7 702.0,157.0 C705.5,159.3 708.5,162.5 712.0,165.0 C715.5,167.5 719.2,169.5 723.0,172.0 C726.8,174.5 731.0,177.2 735.0,180.0 C739.0,182.8 743.2,185.8 747.0,189.0 C750.8,192.2 754.0,195.7 758.0,199.0 C762.0,202.3 766.8,205.7 771.0,209.0 C775.2,212.3 779.0,215.3 783.0,219.0 C787.0,222.7 790.8,227.0 795.0,231.0 C799.2,235.0 803.8,238.7 808.0,243.0 C812.2,247.3 816.2,252.3 820.0,257.0 Z" stroke="currentColor" stroke-width="2" stroke-linecap="round" stroke-linejoin="round"/>
  <path class="ellipse1" d="M804.0,257.0 C808.5,261.3 813.7,265.5 818.0,270.0 C822.3,274.5 825.8,279.0 830.0,284.0 C834.2,289.0 839.2,294.7 843.0,300.0 C846.8,305.3 850.3,310.7 853.0,316.0 C855.7,321.3 858.5,326.8 859.0,332.0 C859.5,337.2 857.5,342.2 856.0,347.0 C854.5,351.8 852.8,356.5 850.0,361.0 C847.2,365.5 842.8,369.8 839.0,374.0 C835.2,378.2 831.7,382.3 827.0,386.0 C822.3,389.7 816.3,393.0 811.0,396.0 C805.7,399.0 800.5,401.5 795.0,404.0 C789.5,406.5 783.8,408.7 778.0,411.0 C772.2,413.3 765.8,416.0 760.0,418.0 C754.2,420.0 748.8,421.5 743.0,423.0 C737.2,424.5 730.7,425.7 725.0,427.0 C719.3,428.3 714.2,429.7 709.0,431.0 C703.8,432.3 699.0,433.8 694.0,435.0 C689.0,436.2 684.0,437.2 679.0,438.0 C674.0,438.8 668.7,439.3 664.0,440.0 C659.3,440.7 655.5,441.3 651.0,442.0 C646.5,442.7 641.3,443.5 637.0,444.0 C632.7,444.5 629.0,444.7 625.0,445.0 C621.0,445.3 616.8,445.5 613.0,446.0 C609.2,446.5 605.7,447.7 602.0,448.0 C598.3,448.3 594.7,447.7 591.0,448.0 C587.3,448.3 583.5,449.7 580.0,450.0 C576.5,450.3 573.2,449.8 570.0,450.0 C566.8,450.2 564.2,450.8 561.0,451.0 C557.8,451.2 554.0,450.8 551.0,451.0 C548.0,451.2 546.0,451.8 543.0,452.0 C540.0,452.2 536.0,451.8 533.0,452.0 C530.0,452.2 527.7,452.8 525.0,453.0 C522.3,453.2 519.7,453.0 517.0,453.0 C514.3,453.0 511.7,453.0 509.0,453.0 C506.3,453.0 503.5,452.8 501.0,453.0 C498.5,453.2 496.5,453.8 494.0,454.0 C491.5,454.2 488.5,454.0 486.0,454.0 C483.5,454.0 481.5,454.0 479.0,454.0 C476.5,454.0 473.5,454.0 471.0,454.0 C468.5,454.0 466.3,454.0 464.0,454.0 C461.7,454.0 459.3,454.0 457.0,454.0 C454.7,454.0 452.3,454.0 450.0,454.0 C447.7,454.0 445.3,454.0 443.0,454.0 C440.7,454.0 438.2,454.0 436.0,454.0 C433.8,454.0 432.2,454.0 430.0,454.0 C427.8,454.0 425.3,454.0 423.0,454.0 C420.7,454.0 418.3,454.0 416.0,454.0 C413.7,454.0 411.3,454.2 409.0,454.0 C406.7,453.8 404.3,453.2 402.0,453.0 C399.7,452.8 397.3,453.0 395.0,453.0 C392.7,453.0 390.3,453.2 388.0,453.0 C385.7,452.8 383.3,452.2 381.0,452.0 C378.7,451.8 376.5,452.0 374.0,452.0 C371.5,452.0 368.5,452.2 366.0,452.0 C363.5,451.8 361.5,451.2 359.0,451.0 C356.5,450.8 353.7,451.0 351.0,451.0 C348.3,451.0 345.7,451.2 343.0,451.0 C340.3,450.8 337.7,450.3 335.0,450.0 C332.3,449.7 329.7,449.2 327.0,449.0 C324.3,448.8 321.8,449.2 319.0,449.0 C316.2,448.8 313.0,448.3 310.0,448.0 C307.0,447.7 304.2,447.2 301.0,447.0 C297.8,446.8 294.3,447.2 291.0,447.0 C287.7,446.8 284.3,446.3 281.0,446.0 C277.7,445.7 274.3,445.3 271.0,445.0 C267.7,444.7 264.5,444.5 261.0,444.0 C257.5,443.5 253.7,442.5 250.0,442.0 C246.3,441.5 242.8,441.5 239.0,441.0 C235.2,440.5 231.3,439.5 227.0,439.0 C222.7,438.5 217.5,438.5 213.0,438.0 C208.5,437.5 204.3,436.8 200.0,436.0 C195.7,435.2 191.8,433.8 187.0,433.0 C182.2,432.2 176.2,431.8 171.0,431.0 C165.8,430.2 161.2,429.2 156.0,428.0 C150.8,426.8 145.8,425.3 140.0,424.0 C134.2,422.7 126.7,421.7 121.0,420.0 C115.3,418.3 109.7,416.7 106.0,414.0 C102.3,411.3 101.5,407.5 99.0,404.0 C96.5,400.5 93.5,396.7 91.0,393.0 C88.5,389.3 86.3,385.7 84.0,382.0 C81.7,378.3 79.0,374.8 77.0,371.0 C75.0,367.2 73.5,363.0 72.0,359.0 C70.5,355.0 69.3,351.2 68.0,347.0 C66.7,342.8 65.0,338.3 64.0,334.0 C63.0,329.7 62.7,325.3 62.0,321.0 C61.3,316.7 60.5,312.3 60.0,308.0 C59.5,303.7 59.2,299.3 59.0,295.0 C58.8,290.7 58.8,286.3 59.0,282.0 C59.2,277.7 59.7,273.2 60.0,269.0 C60.3,264.8 60.5,261.2 61.0,257.0 C61.5,252.8 62.2,248.3 63.0,244.0 C63.8,239.7 64.8,235.2 66.0,231.0 C67.2,226.8 68.8,223.2 70.0,219.0 C71.2,214.8 71.7,210.0 73.0,206.0 C74.3,202.0 76.3,198.8 78.0,195.0 C79.7,191.2 81.3,187.0 83.0,183.0 C84.7,179.0 86.2,174.8 88.0,171.0 C89.8,167.2 92.0,163.5 94.0,160.0 C96.0,156.5 97.8,153.5 100.0,150.0 C102.2,146.5 104.7,142.5 107.0,139.0 C109.3,135.5 111.7,132.3 114.0,129.0 C116.3,125.7 118.5,122.2 121.0,119.0 C123.5,115.8 126.3,113.0 129.0,110.0 C131.7,107.0 134.3,104.0 137.0,101.0 C139.7,98.0 142.3,94.8 145.0,92.0 C147.7,89.2 150.2,86.7 153.0,84.0 C155.8,81.3 158.8,78.5 162.0,76.0 C165.2,73.5 168.8,71.2 172.0,69.0 C175.2,66.8 177.8,65.2 181.0,63.0 C184.2,60.8 187.8,58.2 191.0,56.0 C194.2,53.8 196.8,51.8 200.0,50.0 C203.2,48.2 206.5,46.7 210.0,45.0 C213.5,43.3 217.5,41.5 221.0,40.0 C224.5,38.5 227.5,37.2 231.0,36.0 C234.5,34.8 238.3,33.8 242.0,33.0 C245.7,32.2 249.5,31.8 253.0,31.0 C256.5,30.2 259.3,28.7 263.0,28.0 C266.7,27.3 271.3,27.5 275.0,27.0 C278.7,26.5 281.7,25.5 285.0,25.0 C288.3,24.5 291.5,24.0 295.0,24.0 C298.5,24.0 302.3,24.8 306.0,25.0 C309.7,25.2 313.5,24.7 317.0,25.0 C320.5,25.3 323.5,26.3 327.0,27.0 C330.5,27.7 334.7,28.5 338.0,29.0 C341.3,29.5 343.8,29.5 347.0,30.0 C350.2,30.5 353.8,31.5 357.0,32.0 C360.2,32.5 363.2,32.3 366.0,33.0 C368.8,33.7 371.2,35.3 374.0,36.0 C376.8,36.7 380.2,36.5 383.0,37.0 C385.8,37.5 388.3,38.3 391.0,39.0 C393.7,39.7 396.3,40.3 399.0,41.0 C401.7,41.7 404.3,42.3 407.0,43.0 C409.7,43.7 412.5,44.3 415.0,45.0 C417.5,45.7 419.7,46.3 422.0,47.0 C424.3,47.7 426.5,48.3 429.0,49.0 C431.5,49.7 434.5,50.3 437.0,51.0 C439.5,51.7 441.7,52.2 444.0,53.0 C446.3,53.8 448.8,55.2 451.0,56.0 C453.2,56.8 454.8,57.3 457.0,58.0 C459.2,58.7 461.7,59.3 464.0,60.0 C466.3,60.7 468.8,61.2 471.0,62.0 C473.2,62.8 474.8,64.2 477.0,65.0 C479.2,65.8 481.8,66.2 484.0,67.0 C486.2,67.8 487.8,69.2 490.0,70.0 C492.2,70.8 494.8,71.3 497.0,72.0 C499.2,72.7 501.0,73.2 503.0,74.0 C505.0,74.8 506.8,76.2 509.0,77.0 C511.2,77.8 513.8,78.2 516.0,79.0 C518.2,79.8 519.8,81.0 522.0,82.0 C524.2,83.0 526.8,84.2 529.0,85.0 C531.2,85.8 532.8,86.2 535.0,87.0 C537.2,87.8 539.8,89.0 542.0,90.0 C544.2,91.0 545.8,92.0 548.0,93.0 C550.2,94.0 552.7,95.0 555.0,96.0 C557.3,97.0 559.8,98.0 562.0,99.0 C564.2,100.0 565.8,101.0 568.0,102.0 C570.2,103.0 572.5,103.8 575.0,105.0 C577.5,106.2 580.5,107.8 583.0,109.0 C585.5,110.2 587.7,110.8 590.0,112.0 C592.3,113.2 594.7,114.7 597.0,116.0 C599.3,117.3 601.5,118.7 604.0,120.0 C606.5,121.3 609.3,122.7 612.0,124.0 C614.7,125.3 617.3,126.7 620.0,128.0 C622.7,129.3 625.3,130.5 628.0,132.0 C630.7,133.5 633.2,135.3 636.0,137.0 C638.8,138.7 642.0,140.3 645.0,142.0 C648.0,143.7 651.0,145.3 654.0,147.0 C657.0,148.7 659.7,150.2 663.0,152.0 C666.3,153.8 670.7,156.0 674.0,158.0 C677.3,160.0 679.8,161.8 683.0,164.0 C686.2,166.2 689.7,168.7 693.0,171.0 C696.3,173.3 699.3,175.7 703.0,178.0 C706.7,180.3 711.0,182.5 715.0,185.0 C719.0,187.5 723.0,190.2 727.0,193.0 C731.0,195.8 734.8,199.0 739.0,202.0 C743.2,205.0 747.8,207.8 752.0,211.0 C756.2,214.2 759.8,217.5 764.0,221.0 C768.2,224.5 772.5,228.2 777.0,232.0 C781.5,235.8 786.5,239.8 791.0,244.0 C795.5,248.2 799.5,252.7 804.0,257.0 Z" stroke="currentColor" stroke-width="2" stroke-linecap="round" stroke-linejoin="round"/>
</svg>