<svg xmlns="http://www.w3.org/2000/svg" viewBox="0 0 100.0 92.8" fill="currentColor">
  <circle cx="49.48" cy="7.22" r="2.42"/>
  <circle cx="34.51" cy="10.24" r="2.45"/>
  <circle cx="64.38" cy="10.22" r="2.47"/>
  <circle cx="43.35" cy="15.64" r="2.48"/>
  <circle cx="55.50" cy="15.63" r="2.48"/>
  <circle cx="21.82" cy="18.66" r="2.45"/>
  <circle cx="77.06" cy="18.61" r="2.47"/>
  <circle cx="32.06" cy="20.27" r="2.45"/>
  <circle cx="66.78" cy="20.29" r="2.48"/>
  <circle cx="49.43" cy="22.77" r="2.47"/>
  <circle cx="40.46" cy="24.62" r="2.50"/>
  <circle cx="58.38" cy="24.58" r="2.47"/>
  <circle cx="23.47" cy="28.89" r="2.48"/>
  <circle cx="75.34" cy="28.92" r="2.47"/>
  <circle cx="32.89" cy="29.73" r="2.45"/>
  <circle cx="66.01" cy="29.66" r="2.48"/>
  <circle cx="13.35" cy="31.36" r="2.47"/>
  <circle cx="46.39" cy="30.93" r="2.42"/>
  <circle cx="52.58" cy="30.93" r="2.42"/>
  <circle cx="85.52" cy="31.36" r="2.47"/>
  <circle cx="40.72" cy="33.25" r="2.50"/>
  <circle cx="58.06" cy="33.28" r="2.48"/>
  <circle cx="27.79" cy="37.32" r="2.50"/>
  <circle cx="71.09" cy="37.32" r="2.50"/>
  <circle cx="36.53" cy="37.61" r="2.45"/>
  <circle cx="62.37" cy="37.63" r="2.42"/>
  <circle cx="49.44" cy="38.45" r="2.50"/>
  <circle cx="18.81" cy="40.21" r="2.50"/>
  <circle cx="80.07" cy="40.16" r="2.48"/>
  <circle cx="43.81" cy="40.72" r="2.42"/>
  <circle cx="54.91" cy="40.75" r="2.48"/>
  <circle cx="34.08" cy="43.15" r="2.40"/>
  <circle cx="64.75" cy="43.14" r="2.43"/>
  <circle cx="10.42" cy="46.10" r="2.34"/>
  <circle cx="26.03" cy="46.08" r="2.38"/>
  <circle cx="41.60" cy="46.09" r="2.36"/>
  <circle cx="49.40" cy="46.08" r="2.33"/>
  <circle cx="57.24" cy="46.07" r="2.29"/>
  <circle cx="72.87" cy="46.10" r="2.38"/>
  <circle cx="88.48" cy="46.10" r="2.38"/>
  <circle cx="34.07" cy="49.02" r="2.45"/>
  <circle cx="64.74" cy="49.01" r="2.50"/>
  <circle cx="43.81" cy="51.55" r="2.42"/>
  <circle cx="54.95" cy="51.50" r="2.50"/>
  <circle cx="18.81" cy="52.06" r="2.50"/>
  <circle cx="80.08" cy="52.09" r="2.52"/>
  <circle cx="49.44" cy="53.78" r="2.48"/>
  <circle cx="27.79" cy="54.95" r="2.50"/>
  <circle cx="36.53" cy="54.66" r="2.45"/>
  <circle cx="62.37" cy="54.64" r="2.42"/>
  <circle cx="71.09" cy="54.95" r="2.50"/>
  <circle cx="40.76" cy="58.97" r="2.50"/>
  <circle cx="58.09" cy="58.96" r="2.50"/>
  <circle cx="13.38" cy="60.89" r="2.45"/>
  <circle cx="85.52" cy="60.88" r="2.45"/>
  <circle cx="46.39" cy="61.34" r="2.42"/>
  <circle cx="52.55" cy="61.32" r="2.43"/>
  <circle cx="32.89" cy="62.54" r="2.45"/>
  <circle cx="65.98" cy="62.46" r="2.47"/>
  <circle cx="23.47" cy="63.37" r="2.48"/>
  <circle cx="75.34" cy="63.35" r="2.47"/>
  <circle cx="40.46" cy="67.58" r="2.47"/>
  <circle cx="58.36" cy="67.59" r="2.45"/>
  <circle cx="49.44" cy="69.41" r="2.48"/>
  <circle cx="32.05" cy="71.97" r="2.43"/>
  <circle cx="66.82" cy="71.97" r="2.47"/>
  <circle cx="21.81" cy="73.58" r="2.47"/>
  <circle cx="77.03" cy="73.64" r="2.48"/>
  <circle cx="43.34" cy="76.60" r="2.50"/>
  <circle cx="55.50" cy="76.63" r="2.48"/>
  <circle cx="34.54" cy="81.96" r="2.42"/>
  <circle cx="64.38" cy="82.01" r="2.45"/>
  <circle cx="49.48" cy="85.05" r="2.42"/>
</svg>