<svg xmlns="http://www.w3.org/2000/svg" viewBox="0 0 280 50" fill="#2d3e3f">
  <!-- Dot-spiral symbol based on Akáda brand identity -->
  <g transform="translate(25,25)">
    <!-- Center dot -->
    <circle cx="0" cy="0" r="1.4"/>
    <!-- Ring 1 (6 dots) -->
    <circle cx="0" cy="-4" r="1.2"/>
    <circle cx="3.46" cy="-2" r="1.2"/>
    <circle cx="3.46" cy="2" r="1.2"/>
    <circle cx="0" cy="4" r="1.2"/>
    <circle cx="-3.46" cy="2" r="1.2"/>
    <circle cx="-3.46" cy="-2" r="1.2"/>
    <!-- Ring 2 (12 dots) -->
    <circle cx="0" cy="-8" r="1.1"/>
    <circle cx="4" cy="-6.93" r="1.1"/>
    <circle cx="6.93" cy="-4" r="1.1"/>
    <circle cx="8" cy="0" r="1.1"/>
    <circle cx="6.93" cy="4" r="1.1"/>
    <circle cx="4" cy="6.93" r="1.1"/>
    <circle cx="0" cy="8" r="1.1"/>
    <circle cx="-4" cy="6.93" r="1.1"/>
    <circle cx="-6.93" cy="4" r="1.1"/>
    <circle cx="-8" cy="0" r="1.1"/>
    <circle cx="-6.93" cy="-4" r="1.1"/>
    <circle cx="-4" cy="-6.93" r="1.1"/>
    <!-- Ring 3 (18 dots) -->
    <circle cx="0" cy="-13" r="0.95"/>
    <circle cx="4.5" cy="-12.2" r="0.95"/>
    <circle cx="8.5" cy="-9.75" r="0.95"/>
    <circle cx="11.26" cy="-6.5" r="0.95"/>
    <circle cx="12.73" cy="-2.25" r="0.95"/>
    <circle cx="13" cy="0" r="0.95"/>
    <circle cx="12.73" cy="2.25" r="0.95"/>
    <circle cx="11.26" cy="6.5" r="0.95"/>
    <circle cx="8.5" cy="9.75" r="0.95"/>
    <circle cx="4.5" cy="12.2" r="0.95"/>
    <circle cx="0" cy="13" r="0.95"/>
    <circle cx="-4.5" cy="12.2" r="0.95"/>
    <circle cx="-8.5" cy="9.75" r="0.95"/>
    <circle cx="-11.26" cy="6.5" r="0.95"/>
    <circle cx="-12.73" cy="2.25" r="0.95"/>
    <circle cx="-13" cy="0" r="0.95"/>
    <circle cx="-12.73" cy="-2.25" r="0.95"/>
    <circle cx="-11.26" cy="-6.5" r="0.95"/>
    <circle cx="-8.5" cy="-9.75" r="0.95"/>
    <circle cx="-4.5" cy="-12.2" r="0.95"/>
    <!-- Ring 4 (24 dots, outermost) -->
    <circle cx="0" cy="-18" r="0.8"/>
    <circle cx="4.66" cy="-17.39" r="0.8"/>
    <circle cx="9" cy="-15.59" r="0.8"/>
    <circle cx="12.73" cy="-12.73" r="0.8"/>
    <circle cx="15.59" cy="-9" r="0.8"/>
    <circle cx="17.39" cy="-4.66" r="0.8"/>
    <circle cx="18" cy="0" r="0.8"/>
    <circle cx="17.39" cy="4.66" r="0.8"/>
    <circle cx="15.59" cy="9" r="0.8"/>
    <circle cx="12.73" cy="12.73" r="0.8"/>
    <circle cx="9" cy="15.59" r="0.8"/>
    <circle cx="4.66" cy="17.39" r="0.8"/>
    <circle cx="0" cy="18" r="0.8"/>
    <circle cx="-4.66" cy="17.39" r="0.8"/>
    <circle cx="-9" cy="15.59" r="0.8"/>
    <circle cx="-12.73" cy="12.73" r="0.8"/>
    <circle cx="-15.59" cy="9" r="0.8"/>
    <circle cx="-17.39" cy="4.66" r="0.8"/>
    <circle cx="-18" cy="0" r="0.8"/>
    <circle cx="-17.39" cy="-4.66" r="0.8"/>
    <circle cx="-15.59" cy="-9" r="0.8"/>
    <circle cx="-12.73" cy="-12.73" r="0.8"/>
    <circle cx="-9" cy="-15.59" r="0.8"/>
    <circle cx="-4.66" cy="-17.39" r="0.8"/>
  </g>
  <!-- Future Leader text -->
  <text x="56" y="21" font-family="Poppins, sans-serif" font-size="16" font-weight="400" letter-spacing="0.5">Future</text>
  <text x="56" y="40" font-family="Poppins, sans-serif" font-size="16" font-weight="400" letter-spacing="0.5">Leader</text>
</svg>
