<?xml version="1.0" encoding="utf-8"?>
<!DOCTYPE svg PUBLIC "-//W3C//DTD SVG 1.0//EN" "http://www.w3.org/TR/2001/REC-SVG-20010904/DTD/svg10.dtd">
<svg version="1.0" xmlns="http://www.w3.org/2000/svg" width="919px" height="480px" viewBox="0 0 919 480" preserveAspectRatio="xMidYMid meet">
 <g fill="#ffffff">
  <path d="M0 398.08 l0 -82.24 1.44 0.20 c1.24 0.20 1.70 1.24 3.46 8.35 10.83 43.14 31.26 77.08 57.76 95.95 20.56 14.69 50.32 25 103.45 35.90 13.12 2.68 44.12 7.90 61.68 10.38 23.17 3.33 68.21 8.09 92.81 9.92 6.07 0.46 10.97 1.11 10.97 1.37 0 0.26 1.63 0.52 3.59 0.52 2.74 0 3.59 0.20 3.59 0.98 0 0.85 -19.25 0.98 -169.38 0.98 l-169.38 0 0 -82.31z"/>
  <path d="M652.70 479.41 c0 -0.52 0.46 -0.98 0.98 -0.98 0.52 0 0.98 -0.26 0.98 -0.65 0 -0.33 0.91 -0.65 2.02 -0.65 1.11 0 8.81 -0.72 17.10 -1.63 44.12 -4.76 80.93 -11.10 114.68 -19.65 40.47 -10.18 70.03 -21.87 91.05 -35.83 8.75 -5.81 19.97 -16.19 25.59 -23.69 3.72 -4.96 10.64 -17.56 10.64 -19.39 0 -0.59 0.65 -0.98 1.63 -0.98 l1.63 0 0 52.22 0 52.22 -133.15 0 c-117.94 0 -133.15 -0.13 -133.15 -0.98z"/>
  <path d="M396.19 450.95 c-105.93 -3.72 -211.34 -16.51 -271.20 -32.90 -9.53 -2.61 -11.42 -3.72 -18.21 -10.44 -15.86 -15.73 -29.83 -41.97 -36.49 -68.53 -4.31 -17.30 -5.68 -28.85 -5.68 -48.23 0.07 -55.68 22.26 -115.79 61.94 -167.48 11.36 -14.82 29.76 -34.33 42.49 -45.10 5.29 -4.44 17.36 -13.64 17.95 -13.64 0.26 0 1.37 -0.72 2.41 -1.63 4.96 -4.18 23.37 -14.03 33.48 -17.95 2.15 -0.85 4.83 -1.89 5.87 -2.35 3.59 -1.50 16.90 -5.42 24.02 -7.11 23.11 -5.42 52.28 -7.24 73.89 -4.63 27.22 3.33 62.01 10.70 96.93 20.63 68.40 19.45 142.16 50.71 215.06 91.25 54.50 30.29 106.32 65.99 146.20 100.65 11.10 9.66 34.40 32.96 42.16 42.23 10.90 12.86 19.91 26.43 24.35 36.42 2.22 5.09 2.61 6.66 2.87 11.94 0.33 7.11 -0.52 12.40 -3.20 18.80 -11.81 28.46 -51.82 52.74 -113.83 69.06 -60.77 15.99 -137.78 25.91 -226.49 29.11 -20.23 0.72 -92.81 0.72 -114.55 -0.07z m96.60 -126.23 l0 -9.46 2.87 0 c1.57 0 3.13 0.39 3.59 0.85 0.39 0.52 1.83 1.24 3.26 1.63 6.66 2.02 15.14 -5.61 15.21 -13.84 0.13 -5.48 -3.79 -11.16 -9.20 -13.58 -3.39 -1.57 -5.87 -1.24 -8.94 1.11 -1.37 1.04 -3 1.63 -4.44 1.63 -2.09 0 -2.35 -0.20 -2.35 -1.63 0 -1.57 -0.20 -1.63 -3.59 -1.63 l-3.59 0 0 22.19 0 22.19 3.59 0 3.59 0 0 -9.46z m-279.75 -7.83 c3.85 -2.09 7.57 -2.22 7.57 -0.33 0 1.17 0.46 1.31 3.59 1.31 l3.59 0 0 -14.03 0 -14.03 -3.59 0 c-3.39 0 -3.59 0.07 -3.59 1.63 0 1.37 -0.33 1.63 -1.96 1.63 -1.11 0 -3.07 -0.72 -4.44 -1.57 -3.92 -2.61 -5.55 -2.74 -9.59 -0.78 -5.61 2.81 -9.46 9.20 -8.62 14.56 0.85 5.09 4.50 9.86 9.27 12.01 3.39 1.57 4.11 1.57 7.77 -0.39z m136.54 -0.20 c3.79 -1.96 7.24 -5.74 8.42 -9.27 1.44 -4.24 0.39 -8.09 -3.07 -12.07 -6.79 -7.70 -16.71 -8.16 -24.02 -1.04 -8.62 8.29 -5.16 18.73 7.83 23.82 1.89 0.72 8.29 -0.13 10.83 -1.44z m96.80 0.72 c2.22 -0.65 4.11 -1.89 5.42 -3.39 l2.09 -2.35 -2.41 -0.20 c-1.89 -0.13 -2.94 0.20 -4.44 1.44 -1.63 1.44 -2.68 1.70 -5.87 1.70 -3.26 0 -4.11 -0.26 -5.87 -1.83 -1.76 -1.57 -2.15 -2.41 -2.41 -5.55 l-0.26 -3.72 11.49 0 c11.49 0 11.49 0 11.49 -1.44 -0.07 -4.31 -5.35 -10.70 -10.12 -12.27 -10.51 -3.46 -22.45 7.64 -18.93 17.56 1.57 4.44 3.85 6.92 8.22 9.14 4.63 2.28 6.85 2.48 11.62 0.91z m104.04 -0.59 c1.50 -0.98 3.46 -2.35 4.31 -3.13 1.83 -1.63 4.63 -7.31 4.63 -9.46 0 -4.83 -3.85 -10.77 -8.68 -13.25 -1.50 -0.72 -4.50 -1.50 -6.66 -1.63 -3.52 -0.33 -4.37 -0.07 -8.09 1.83 -7.18 3.79 -10.64 10.83 -8.22 16.64 1.24 2.94 5.03 7.11 7.83 8.55 5.16 2.74 10.90 2.87 14.88 0.46z m54.76 0.07 c3.13 -2.15 7.70 -2.28 7.70 -0.33 0 1.11 0.46 1.31 3.26 1.31 l3.26 0 0 -14.03 0 -14.03 -3.26 0 c-3.07 0 -3.26 0.13 -3.26 1.63 0 1.37 -0.33 1.63 -1.96 1.63 -1.11 0 -3.07 -0.72 -4.44 -1.57 -3.46 -2.28 -5.42 -2.61 -8.35 -1.37 -7.38 3.07 -11.68 10.77 -9.73 17.36 1.57 5.22 8.16 10.70 13.38 10.97 0.59 0.07 2.09 -0.65 3.39 -1.57z m-439.92 -9.07 c0.20 -9.79 0.26 -10.05 1.83 -11.42 1.24 -0.98 2.55 -1.31 5.61 -1.37 6.20 0 6.46 0.46 6.46 12.60 l0 9.92 3.79 0.20 3.72 0.20 0 -8.55 c0 -10.38 -0.78 -13.77 -3.72 -16.71 -3.66 -3.66 -8.29 -3.92 -11.94 -0.59 -0.59 0.52 -2.15 0.98 -3.46 0.98 l-2.41 0 0 -12.07 0 -12.07 -3.59 0 -3.59 0 0 24.48 0 24.48 3.52 0 3.59 0 0.20 -10.05z m80.80 1.89 c0 -9.14 0.91 -12.73 3.20 -12.73 0.72 0 1.50 -0.26 1.70 -0.65 0.20 -0.33 1.83 -0.65 3.66 -0.65 l3.20 0 0 -2.94 c0 -2.22 -0.26 -2.94 -0.98 -2.94 -1.37 0 -4.44 1.63 -5.48 2.87 -0.52 0.59 -1.89 1.04 -3.07 1.04 -2.02 0 -2.22 -0.20 -2.22 -1.96 0 -1.96 -0.07 -1.96 -3.59 -1.96 l-3.59 0 0 14.03 0 14.03 3.59 0 3.59 0 0 -8.16z m28.07 -1.37 c0 -12.53 0.39 -13.32 6.79 -13.32 6.14 0 6.27 0.20 6.27 12.53 l0 10.31 3.52 0 3.52 0 0.26 -10.18 c0.20 -9.79 0.26 -10.25 1.76 -11.42 1.11 -0.91 2.55 -1.24 5.22 -1.24 2.02 0 3.98 0.26 4.44 0.52 1.63 1.04 2.15 4.44 2.15 13.25 l0 9.07 3.59 0 3.59 0 0 -9.92 c0 -8.62 -0.20 -10.25 -1.37 -12.66 -1.50 -3.20 -2.15 -3.79 -5.22 -5.09 -1.89 -0.78 -2.61 -0.78 -4.76 -0.07 -1.37 0.46 -3.26 1.63 -4.24 2.55 -2.28 2.15 -5.87 2.35 -7.11 0.33 -0.46 -0.72 -2.15 -1.89 -3.79 -2.61 -2.81 -1.31 -2.94 -1.31 -5.61 -0.07 -1.57 0.65 -3.20 1.70 -3.72 2.28 -0.52 0.65 -1.83 1.11 -3.07 1.11 -2.02 0 -2.22 -0.20 -2.22 -1.96 0 -1.96 -0.07 -1.96 -3.59 -1.96 l-3.59 0 0 14.03 0 14.03 3.59 0 3.59 0 0 -9.53z m101.82 -0.26 c0 -9.59 0.07 -9.92 1.63 -11.42 1.31 -1.37 2.15 -1.63 5.74 -1.63 6.40 0 6.59 0.39 6.85 12.79 l0.26 10.05 3.52 0 3.52 0 0 -9.59 c-0.07 -12.66 -1.24 -15.53 -7.38 -18.15 -2.28 -0.91 -2.68 -0.91 -5.22 0.20 -1.50 0.65 -3.13 1.70 -3.66 2.28 -0.52 0.65 -1.83 1.11 -3.07 1.11 -2.02 0 -2.22 -0.20 -2.22 -1.96 0 -1.96 -0.07 -1.96 -3.59 -1.96 l-3.59 0 0 14.03 0 14.03 3.59 0 3.59 0 0 -9.79z m40.34 0.98 c0.13 -4.63 0 -10.90 -0.20 -13.84 l-0.46 -5.42 -3.52 0 -3.52 0 0 13.58 c0 7.51 0.20 13.84 0.46 14.10 0.26 0.26 1.96 0.39 3.79 0.26 l3.26 -0.20 0.20 -8.49z m160.69 -15.66 l0 -24.48 -3.92 0 -3.92 0 0 24.02 c0 13.25 0.20 24.28 0.46 24.48 0.20 0.26 1.96 0.46 3.92 0.46 l3.46 0 0 -24.48z m61.22 14.95 c0.13 -9.01 0.20 -9.33 1.89 -10.97 1.44 -1.50 2.22 -1.70 5.81 -1.70 l4.18 0 0 -2.94 c0 -2.22 -0.26 -2.94 -0.98 -2.94 -1.37 0 -4.44 1.63 -5.48 2.87 -0.52 0.65 -1.89 1.04 -3.39 1.04 -2.41 0 -2.55 -0.13 -2.55 -1.96 0 -1.96 -0.07 -1.96 -3.59 -1.96 l-3.59 0 0 14.03 0 14.10 3.79 -0.20 3.72 -0.20 0.20 -9.20z m27.54 -4.50 l0 -14.03 -3.59 0 -3.59 0 0 14.03 0 14.03 3.59 0 3.59 0 0 -14.03z m19.58 2.94 l0 -11.10 3.26 0 3.26 0 0 -2.94 0 -2.94 -3.26 0 -3.26 0 0 -4.57 0 -4.57 -3.59 0 -3.59 0 0 4.57 0 4.57 -1.96 0 c-1.89 0 -1.96 0.13 -1.96 2.94 0 2.81 0.07 2.94 1.96 2.94 l1.96 0 0 11.10 0 11.10 3.59 0 3.59 0 0 -11.10z m-20.69 -27.94 c2.15 -1.89 0.59 -6 -2.35 -6 -1.50 0 -4.37 2.41 -4.37 3.66 0 1.17 3.92 4.24 4.76 3.79 0.46 -0.26 1.31 -0.91 1.96 -1.44z m-249.72 -0.26 c1.96 -1.89 1.89 -2.68 -0.52 -4.76 -1.83 -1.50 -2.22 -1.57 -3.39 -0.78 -0.72 0.46 -1.76 1.50 -2.22 2.22 -0.78 1.11 -0.72 1.50 0.52 3 1.63 2.15 3.59 2.22 5.61 0.33z m-153.91 -39.42 c3.98 -1.17 8.49 -4.96 10.18 -8.49 1.96 -4.11 1.96 -6.40 0.07 -10.31 -3.59 -7.31 -11.68 -11.03 -19.39 -8.88 -5.68 1.57 -11.16 7.24 -12.01 12.34 -1.17 7.05 7.51 16.12 15.73 16.32 1.11 0.07 3.52 -0.39 5.42 -0.98z m195.94 0.39 c3.52 -0.98 6.59 -3.33 8.22 -6.20 1.37 -2.35 1.50 -3.46 1.50 -12.21 l0 -9.66 -3.59 0 -3.59 0 0 9.73 c0 8.81 -0.13 9.86 -1.37 11.42 -1.24 1.57 -1.76 1.70 -5.81 1.70 -4.05 0 -4.57 -0.13 -5.81 -1.70 -1.24 -1.57 -1.37 -2.61 -1.37 -11.42 l0 -9.73 -3.59 0 -3.59 0 0 9.33 c0 8.35 0.13 9.59 1.50 12.21 0.78 1.57 2.22 3.39 3.13 4.05 3.85 2.81 9.59 3.79 14.36 2.48z m-81.78 -1.31 c2.61 -1.57 7.31 -1.76 7.31 -0.33 0 0.78 0.85 0.98 3.59 0.98 l3.59 0 0 -23.82 0 -23.82 -3.59 0 -3.59 0 0 11.42 0 11.42 -2.35 0 c-1.37 0 -3.07 -0.52 -3.98 -1.31 -5.35 -4.18 -14.03 -0.20 -17.49 8.03 -1.37 3.33 -1.24 6.14 0.59 9.92 3.46 7.38 10.64 10.70 15.93 7.51z m-193.53 -0.91 c6.40 -3.20 11.55 -10.05 12.53 -16.84 1.11 -7.57 -4.24 -16.77 -11.94 -20.56 -3.46 -1.70 -4.37 -1.83 -13.64 -2.02 l-9.99 -0.26 0 20.69 0 20.63 10.31 -0.20 c8.42 -0.13 10.70 -0.39 12.73 -1.44z m30.48 -12.14 l0 -13.71 -3.92 0 -3.92 0 0 13.71 0 13.71 3.92 0 3.92 0 0 -13.71z m18.15 -10.12 l0 -23.82 -3.85 0 -3.85 0 0 23.82 0 23.82 3.85 0 3.85 0 0 -23.82z m99.34 21.21 l0 -2.61 -6.53 0 -6.53 0 0 -2.48 c0 -2.09 0.85 -3.79 4.96 -9.66 2.74 -3.92 5.42 -7.77 6 -8.55 l0.91 -1.50 -12.47 0 -12.47 0 0 2.94 0 2.94 5.87 0 5.87 0 0 2.48 c0 2.61 0 2.61 -6.66 11.94 -2.41 3.46 -4.44 6.46 -4.44 6.72 0 0.20 5.74 0.39 12.73 0.39 l12.73 0 0 -2.61z m78.32 -11.10 l0 -13.71 -3.59 0 -3.59 0 0 13.71 0 13.71 3.59 0 3.59 0 0 -13.71z m18.93 -9.46 l0 -23.17 -3.59 0 -3.59 0 0 23.17 0 23.17 3.59 0 3.59 0 0 -23.17z m-215.39 -16.38 c2.74 -2.74 2.87 -3 1.76 -3.85 -1.04 -0.78 -1.50 -0.52 -3.85 2.02 -1.63 1.76 -2.48 3.26 -2.22 3.85 0.52 1.50 1.17 1.24 4.31 -2.02z m199.01 -2.68 c0.39 -0.26 -1.31 -2.15 -1.89 -2.15 -0.33 0 -1.76 1.50 -3.33 3.33 -2.22 2.61 -2.55 3.46 -1.83 3.92 0.65 0.39 1.76 -0.26 3.85 -2.22 1.57 -1.50 3 -2.81 3.20 -2.87z m43.34 5.22 c-0.85 -0.13 -2.15 -0.13 -2.94 0 -0.85 0.13 -0.20 0.26 1.44 0.26 1.63 0 2.28 -0.13 1.50 -0.26z m-6.85 -5.87 l-0.26 -1.83 -0.85 1.70 c-0.72 1.44 -0.72 2.02 0 3.26 l0.91 1.57 0.20 -1.44 c0.13 -0.85 0.13 -2.28 0 -3.26z m12.47 1.44 c0 -0.33 -0.39 -1.24 -0.91 -1.89 -0.91 -1.17 -0.98 -1.04 -0.98 1.89 0 2.94 0.07 3.07 0.98 1.89 0.52 -0.65 0.91 -1.50 0.91 -1.89z m-5.29 -5.03 c-1.24 -0.39 -2.41 -0.39 -3.59 0 -1.63 0.59 -1.37 0.65 1.76 0.65 3.13 0 3.39 -0.07 1.83 -0.65z"/>
  <path d="M496.96 311.99 c-2.74 -1.11 -4.18 -3.79 -4.18 -7.90 0 -6.79 2.22 -9.07 8.81 -9.07 6.66 0 8.81 2.28 8.81 9.20 0 3.66 -0.20 4.18 -2.22 6.20 -2.02 2.02 -2.55 2.22 -6 2.15 -2.15 0 -4.50 -0.26 -5.22 -0.59z"/>
  <path d="M207.23 312.06 c-3 -1.24 -3.92 -3.20 -3.92 -8.35 0 -4.70 0.07 -4.96 2.15 -6.79 1.89 -1.70 2.55 -1.89 6.72 -1.89 4.24 0 4.76 0.13 6.53 1.89 1.76 1.76 1.89 2.28 1.89 6.72 -0.07 4.96 -0.46 6 -3.26 7.90 -1.70 1.17 -7.70 1.50 -10.12 0.52z"/>
  <path d="M337.71 312.06 c-2.87 -1.24 -4.18 -3.85 -4.18 -8.35 0 -3.98 0.13 -4.37 2.22 -6.46 2.09 -2.09 2.48 -2.22 6.59 -2.22 4.11 0 4.50 0.13 6.59 2.22 2.09 2.09 2.22 2.48 2.22 6.53 0 3.79 -0.20 4.50 -1.89 6.40 -1.70 1.89 -2.28 2.09 -6 2.28 -2.28 0.07 -4.83 -0.07 -5.55 -0.39z"/>
  <path d="M433.39 298.28 c0 -4.18 1.57 -5.22 7.77 -5.22 4.63 0 5.35 0.13 6.20 1.44 0.59 0.78 1.04 2.55 1.04 3.92 l0 2.48 -7.51 0 -7.51 0 0 -2.61z"/>
  <path d="M537.69 311.60 c-2.55 -1.37 -3.13 -2.81 -3.13 -8.03 0 -6.53 1.17 -7.77 7.96 -8.35 4.96 -0.39 5.03 -0.33 6.98 1.63 1.89 1.83 2.02 2.35 2.02 6.66 0 5.35 -0.59 6.79 -3.26 8.16 -2.41 1.24 -8.29 1.24 -10.57 -0.07z"/>
  <path d="M598.59 311.79 c-2.35 -1.37 -3.26 -3.66 -3.33 -8.16 0 -3.92 0.13 -4.31 2.22 -6.40 2.09 -2.09 2.48 -2.22 6.53 -2.22 3.79 0 4.50 0.20 6.40 1.89 2.09 1.83 2.15 2.09 2.15 6.85 0 4.50 -0.13 5.09 -1.76 6.72 -1.57 1.57 -2.41 1.83 -6.20 1.96 -2.94 0.13 -4.96 -0.07 -6 -0.65z"/>
  <path d="M252.14 233.86 c-0.78 -0.13 -2.22 -1.17 -3.13 -2.22 -1.37 -1.70 -1.63 -2.68 -1.63 -6.20 0 -2.35 0.33 -4.83 0.65 -5.55 1.11 -1.96 4.18 -3.20 8.16 -3.20 4.31 0 6.92 1.17 8.03 3.59 1.04 2.22 0.98 8.03 -0.07 10.12 -1.50 3.07 -6.53 4.50 -12.01 3.46z"/>
  <path d="M369.43 233.47 c-3.26 -1.11 -4.70 -4.18 -4.37 -9.20 0.20 -3.33 0.52 -4.11 2.28 -5.68 1.89 -1.70 2.55 -1.89 6.72 -1.89 4.24 0 4.76 0.13 6.53 1.89 1.76 1.76 1.89 2.28 1.89 6.72 0 5.68 -0.91 7.38 -4.44 8.35 -3.07 0.85 -5.74 0.78 -8.62 -0.20z"/>
  <path d="M167.61 232.62 c-0.33 -0.26 -0.52 -6.92 -0.52 -14.75 l0 -14.23 3.79 0 c10.64 0 15.08 4.31 15.14 14.56 0 6.98 -1.83 11.10 -5.87 13.18 -1.96 0.98 -11.81 2.02 -12.53 1.24z"/>
  <path d="M916.72 335.94 c-0.39 -0.46 -1.24 -2.55 -1.96 -4.70 -2.02 -6.20 -9.53 -20.56 -14.88 -28.59 -28.65 -42.56 -92.03 -95.56 -172.44 -144.05 -75.58 -45.62 -172.18 -90.14 -260.43 -120.10 -50.19 -16.97 -95.29 -28.46 -134.78 -34.20 -9.33 -1.37 -10.12 -1.57 -10.31 -2.87 l-0.20 -1.44 298.61 0 298.67 0 0 168.40 c0 172.97 0.07 170.35 -2.28 167.55z"/>
  <path d="M0 107.04 l0 -107.04 104.76 0 c101.95 0 104.76 0.07 104.76 1.24 0 0.91 -0.65 1.31 -2.74 1.63 -10.90 1.70 -33.22 8.42 -46.28 13.84 -45.49 19.12 -88.83 56.20 -118.33 101.23 -18.08 27.61 -32.37 61.22 -38.64 90.79 -0.91 4.31 -1.37 5.35 -2.35 5.35 -1.11 0 -1.17 -3.79 -1.17 -107.04z"/>
 </g>
 <g fill="#fdc705">
  <path d="M409.89 479.41 c-9.53 -0.46 -24.22 -1.17 -32.63 -1.57 -29.57 -1.37 -41.58 -2.09 -54.17 -3.07 -106.19 -8.09 -193.59 -23.89 -238.17 -43.01 -36.22 -15.47 -62.14 -48.69 -73.23 -93.66 -0.52 -2.15 -2.55 -16.97 -2.55 -18.73 0 -0.52 -0.78 -0.85 -1.83 -0.85 -1.83 0 -1.96 -0.20 -2.94 -4.76 -0.59 -2.61 -1.70 -9.14 -2.55 -14.49 -1.37 -8.94 -1.50 -11.94 -1.50 -35.25 0 -21.02 0.20 -27.02 1.17 -34.27 6.20 -45.82 23.56 -88.11 51.76 -126.04 28.26 -38.05 67.16 -69.19 106.65 -85.44 25.52 -10.44 53.85 -16.38 83.55 -17.43 l12.40 -0.39 0 2.22 0 2.28 -7.31 1.17 c-20.63 3.39 -46.93 11.81 -64.81 20.76 -12.92 6.46 -30.02 17.04 -41.97 25.91 -5.61 4.18 -7.31 6 -2.55 2.81 1.50 -1.04 4.63 -2.94 6.98 -4.18 2.35 -1.31 5.29 -3.46 6.53 -4.76 2.48 -2.61 6.33 -5.22 15.01 -10.31 22.58 -13.12 48.56 -22.58 75.06 -27.48 19.58 -3.59 24.02 -3.92 51.24 -3.92 23.95 0 26.17 0.07 38.18 1.76 23.04 3.13 42.23 7.05 68.21 13.90 27.80 7.31 72.38 21.73 99.73 32.18 9.79 3.79 15.34 5.94 42.56 16.90 7.57 3 20.30 8.16 28.39 11.36 37.73 15.08 77.67 34.33 122.38 59.13 105.15 58.29 188.17 126.88 213.37 176.36 7.90 15.47 10.51 25.52 10.44 40.14 -0.07 8.29 -0.33 10.77 -1.76 16.06 -3.26 12.34 -10.31 23.56 -21.73 34.53 -10.25 9.92 -18.67 15.34 -36.81 23.82 -29.70 13.90 -66.25 24.35 -115.85 33.22 -36.36 6.46 -75.91 10.90 -133.80 14.82 -16.71 1.11 -174.92 1.37 -197.44 0.26z m85.50 -25.78 c31.26 -0.98 76.37 -3.66 98.56 -5.81 25.65 -2.55 69.97 -8.55 84.52 -11.49 2.55 -0.52 7.05 -1.37 10.12 -1.89 37.33 -6.66 81.13 -19.65 106.39 -31.53 34.20 -16.12 55.94 -37.73 61.09 -60.83 1.70 -7.51 1.04 -11.23 -3.33 -20.23 -16.77 -34.40 -60.24 -77.80 -122.84 -122.64 -63.83 -45.75 -142.61 -88.31 -222.37 -120.23 -61.09 -24.41 -122.05 -41.32 -180.21 -50.06 -10.70 -1.63 -34.92 -1.57 -47.32 0.07 -50.71 6.66 -87.66 24.67 -124.93 61.09 -36.75 35.90 -63.83 79.24 -79.76 127.67 -9.01 27.35 -12.79 49.21 -12.86 73.36 0 29.76 6.40 56.39 19.84 83.02 7.44 14.69 13.77 23.56 23.69 33.48 9.14 9.07 12.14 10.90 20.30 12.53 1.83 0.39 8.35 1.89 14.62 3.39 26.63 6.27 64.23 12.79 100.25 17.36 78.85 9.92 180.60 15.01 254.23 12.73z"/>
 </g>
 <g fill="#020201">
  <path d="M323.41 479.02 c-78.52 -6.59 -134.26 -14.56 -184.39 -26.37 -44.51 -10.44 -71.01 -22.13 -89.68 -39.55 -12.99 -12.14 -26.17 -31.72 -34.66 -51.50 -3.52 -8.16 -9.27 -25.32 -11.49 -34.27 -1.04 -4.31 -2.22 -8.35 -2.55 -8.94 -0.39 -0.72 -0.65 -19.91 -0.65 -53 l0 -51.76 1.63 -7.18 c14.36 -63.77 52.28 -121.86 105.87 -162.20 28.39 -21.34 58.61 -35.12 93.66 -42.62 l7.70 -1.63 57.11 0 c32.96 0 57.63 0.26 58.29 0.59 0.59 0.33 4.63 1.04 8.94 1.63 104.43 14.16 272.11 79.56 396.19 154.43 80.74 48.69 144.12 101.76 172.64 144.44 5.87 8.75 12.79 22.45 15.27 30.09 1.70 5.03 1.70 5.35 1.70 25.91 0 13.45 -0.26 20.82 -0.65 20.82 -0.33 0 -0.65 0.46 -0.65 0.98 0 1.83 -6.92 14.42 -10.64 19.39 -5.61 7.51 -16.84 17.88 -25.59 23.69 -38.71 25.72 -113.77 45.95 -206.25 55.48 -8.94 0.91 -17.75 1.96 -19.45 2.28 -2.02 0.39 -59.07 0.65 -160.56 0.59 -147.18 -0.07 -158.34 -0.20 -171.79 -1.31z m243.78 -0.59 c109.98 -3 205.40 -17.43 266.89 -40.40 10.97 -4.11 28.91 -12.34 36.29 -16.58 12.21 -7.05 24.41 -17.56 31.85 -27.54 13.97 -18.80 16.84 -39.68 8.49 -62.33 -7.70 -20.82 -22 -40.79 -47.19 -65.92 -40.60 -40.66 -101.89 -84.59 -171.99 -123.49 -44.71 -24.80 -84.66 -44.06 -122.38 -59.13 -8.09 -3.20 -20.82 -8.35 -28.39 -11.36 -27.22 -10.97 -32.77 -13.12 -42.56 -16.90 -27.35 -10.44 -71.93 -24.87 -99.73 -32.18 -26.04 -6.85 -45.23 -10.77 -68.21 -13.90 -11.81 -1.63 -14.36 -1.76 -36.22 -1.76 -25.06 0 -30.02 0.39 -49.28 3.92 -26.50 4.90 -52.48 14.36 -75.06 27.48 -8.68 5.09 -12.53 7.70 -15.01 10.31 -1.24 1.31 -4.18 3.46 -6.53 4.76 -23.76 13.12 -57.83 47.19 -81.72 81.72 -11.42 16.45 -25.26 41.97 -33.16 61.03 -18.21 44.25 -26.11 92.23 -21.21 129.89 1.11 8.94 1.31 9.53 4.44 20.23 10.12 34.14 31.46 62.46 58.35 77.61 22.45 12.53 61.68 23.69 117.68 33.29 44.12 7.64 110.96 14.95 158.61 17.36 35.96 1.83 82.76 3.85 94.31 4.11 23.69 0.52 100.84 0.39 121.73 -0.20z m-559.69 -180.67 c0.07 -14.03 0.33 -20.76 1.17 -26.89 4.90 -35.12 14.82 -66.97 31.20 -99.86 16.12 -32.37 35.83 -59.92 61.55 -86.03 18.86 -19.19 32.18 -30.35 50.98 -42.82 30.22 -19.97 56.78 -30.87 92.03 -37.66 l9.79 -1.89 -10.77 0.39 c-27.87 0.91 -56.59 6.98 -81.59 17.23 -39.49 16.25 -78.39 47.39 -106.65 85.44 -28.07 37.73 -45.95 81.20 -51.63 125.45 -3.07 24.08 -2.94 43.21 0.33 66.51 1.04 7.11 3.20 18.93 3.52 18.93 0.07 0 0.07 -8.42 0.07 -18.80z"/>
  <path d="M413.48 455.52 c-103.45 -2.68 -206.71 -13.97 -274.53 -30.02 -6.27 -1.50 -12.79 -3 -14.62 -3.39 -8.16 -1.63 -11.16 -3.46 -20.30 -12.53 -9.92 -9.92 -16.25 -18.80 -23.69 -33.48 -13.77 -27.22 -19.84 -53.26 -19.84 -84.98 0 -26.04 3.66 -47.26 12.86 -75.32 15.93 -48.43 43.01 -91.77 79.76 -127.67 37.27 -36.42 74.08 -54.44 124.93 -61.09 12.53 -1.70 40.34 -1.70 51.24 -0.07 98.88 14.82 205.14 53.39 312.77 113.44 42.49 23.76 85.31 52.09 119.97 79.50 45.82 36.29 78 70.75 92.10 98.69 3.52 7.05 6.27 15.93 5.42 17.62 -0.26 0.52 -0.78 3.07 -1.17 5.68 -3.52 23.17 -26.11 46.34 -61.42 62.99 -25.26 11.88 -69.06 24.87 -106.39 31.53 -3.07 0.52 -7.57 1.37 -10.12 1.89 -11.49 2.28 -40.34 6.40 -66.58 9.46 -16.64 1.96 -21.87 2.41 -42.10 3.92 -56.59 4.11 -103.58 5.29 -158.28 3.85z m95.29 -6.46 c98.23 -3.59 183.47 -15.53 244.76 -34.40 32.24 -9.86 59.13 -23.30 75.39 -37.53 15.80 -13.84 24.41 -29.83 23.37 -43.14 -0.85 -9.53 -11.55 -27.80 -27.22 -46.34 -7.77 -9.27 -31.07 -32.57 -42.16 -42.23 -77.08 -67.10 -190.26 -131.65 -303.83 -173.29 -51.43 -18.86 -111.15 -34.01 -154.36 -39.23 -20.63 -2.48 -47.12 -0.72 -70.17 4.70 -6.98 1.63 -20.23 5.61 -23.82 7.05 -1.04 0.46 -3.72 1.50 -5.87 2.35 -10.12 3.92 -28.52 13.77 -33.48 17.95 -1.04 0.91 -2.15 1.63 -2.41 1.63 -0.59 0 -12.66 9.20 -17.95 13.64 -6.79 5.74 -22.39 21.28 -29.63 29.44 -46.15 52.28 -74.73 121.60 -74.80 181.19 0 33.22 8.03 63.83 23.76 90.59 7.11 12.07 18.47 25.65 25.59 30.55 7.70 5.35 69.58 17.82 120.36 24.28 49.41 6.33 106.26 10.77 161.87 12.73 21.73 0.78 90.40 0.78 110.63 0.07z"/>
  <path d="M483.65 311.99 l0 -24.15 5.55 0 c5.48 0 5.55 0 5.55 1.63 0 2.02 0.20 2.02 3 -0.13 4.63 -3.46 12.53 -2.61 17.23 1.96 4.70 4.57 6.27 12.86 3.72 19.45 -2.09 5.42 -8.16 9.73 -13.84 9.73 -2.48 0 -6.14 -1.11 -7.57 -2.35 -2.28 -2.02 -2.55 -1.17 -2.55 8.55 l0 9.46 -5.55 0 -5.55 0 0 -24.15z m22.58 -3.52 c1.57 -1.57 2.22 -2.81 2.22 -4.24 0 -4.18 -2.94 -7.24 -6.85 -7.24 -5.61 0 -8.88 6.40 -5.48 10.70 2.87 3.66 6.92 3.98 10.12 0.78z"/>
  <path d="M203.32 319.24 c-5.55 -2.48 -8.88 -7.57 -9.33 -14.10 -0.33 -4.96 0.59 -8.42 3.13 -11.88 4.44 -6 12.99 -7.77 18.86 -3.92 l2.68 1.76 0 -1.63 c0 -1.63 0.07 -1.63 5.55 -1.63 l5.55 0 0 15.99 0 15.99 -5.55 0 c-5.09 0 -5.55 -0.13 -5.55 -1.31 0 -1.63 0.07 -1.63 -3.66 0.33 -3.72 1.96 -7.96 2.09 -11.68 0.39z m12.07 -9.66 c2.61 -1.76 3.20 -2.94 3.26 -5.94 0 -6.07 -6.59 -8.88 -11.23 -4.76 -6.07 5.42 1.37 15.27 7.96 10.70z"/>
  <path d="M335.81 319.63 c-9.73 -3.98 -13.71 -11.36 -11.10 -20.43 0.85 -3 1.83 -4.50 4.24 -6.85 4.11 -4.05 8.22 -5.42 14.95 -5.03 6 0.39 9.33 1.89 12.99 6.07 7.11 8.09 4.50 20.17 -5.42 25.32 -3.20 1.63 -12.60 2.22 -15.66 0.91z m11.62 -11.55 c2.55 -2.87 2.41 -6 -0.46 -8.88 -1.70 -1.70 -2.74 -2.22 -4.63 -2.22 -3.33 0 -6.85 3.46 -6.85 6.72 0 2.48 1.96 5.42 4.18 6.40 2.41 0.98 5.81 0.13 7.77 -2.02z"/>
  <path d="M432.80 318.45 c-6.53 -3.26 -9.66 -8.94 -9.01 -16.19 0.78 -9.07 6.53 -14.36 16.19 -14.95 6.07 -0.33 9.01 0.52 12.53 3.72 3.07 2.74 4.70 6.14 5.35 11.03 l0.46 3.39 -11.88 0 -11.88 0 0.39 1.83 c0.59 2.48 3.92 5.35 6.20 5.35 1.11 0 2.74 -0.72 3.85 -1.63 1.76 -1.44 2.55 -1.63 7.24 -1.63 2.94 0 5.29 0.26 5.29 0.52 0 0.85 -3.59 6.27 -4.96 7.38 -2.02 1.76 -7.18 3.20 -11.62 3.20 -3.26 0 -4.90 -0.39 -8.16 -2.02z m13.64 -20.04 c0 -0.26 -0.46 -1.17 -1.04 -1.96 -1.37 -1.96 -6.79 -2.09 -8.75 -0.13 -2.22 2.22 -1.57 2.61 4.24 2.61 3.07 0 5.55 -0.20 5.55 -0.52z"/>
  <path d="M537.17 319.89 c-4.70 -1.44 -9.59 -5.74 -11.42 -9.99 -0.52 -1.37 -0.98 -3.98 -0.98 -5.87 0.07 -6.98 3.13 -11.81 9.53 -14.95 3.92 -1.96 4.50 -2.02 9.86 -1.76 6.72 0.33 9.99 1.70 13.38 5.74 4.11 4.76 5.03 12.07 2.22 17.95 -1.63 3.52 -3.20 5.16 -7.38 7.77 -2.41 1.50 -3.46 1.70 -8.16 1.63 -3 0 -6.14 -0.26 -7.05 -0.52z m9.14 -10.18 c2.41 -1.24 3.26 -2.81 3.26 -6.20 0 -2.15 -0.39 -3.13 -1.96 -4.63 -1.76 -1.83 -2.22 -1.96 -5.03 -1.57 -4.05 0.59 -6.07 2.68 -6.07 6.27 0 3.26 0.85 4.83 3.13 6.07 2.28 1.31 4.31 1.31 6.66 0.07z"/>
  <path d="M596.96 319.82 c-7.24 -2.22 -12.27 -10.51 -11.16 -18.28 1.70 -11.42 13.71 -17.95 22.52 -12.14 l2.61 1.70 0 -1.63 c0 -1.63 0.07 -1.63 5.22 -1.63 3.72 0 5.22 0.26 5.29 0.85 0 0.59 0 27.48 -0.07 30.68 0 0.26 -2.35 0.46 -5.22 0.46 -4.76 0 -5.22 -0.13 -5.22 -1.31 0 -1.70 -0.85 -1.63 -3.79 0.33 -2.55 1.70 -6.40 2.09 -10.18 0.98z m11.94 -11.36 c1.31 -1.37 1.70 -2.35 1.70 -4.70 0 -2.55 -0.33 -3.26 -2.15 -4.90 -3 -2.74 -6.07 -2.61 -9.01 0.33 -2.41 2.41 -2.87 5.29 -1.31 8.16 2.02 3.66 7.57 4.24 10.77 1.11z"/>
  <path d="M156 293.39 l0 -26.43 5.55 0 5.55 0 0 12.07 c0 6.66 0.26 12.07 0.59 12.07 0.33 0 0.91 -0.46 1.37 -0.91 0.39 -0.52 2.02 -1.50 3.66 -2.09 5.35 -2.02 11.88 0.39 14.36 5.42 1.04 2.09 1.24 4.24 1.44 14.42 l0.26 11.94 -5.81 -0.20 -5.74 -0.20 -0.13 -9.99 c-0.07 -8.49 -0.26 -10.25 -1.24 -11.29 -1.50 -1.63 -4.70 -1.57 -6.79 0.13 -1.57 1.37 -1.63 1.63 -1.83 11.42 l-0.20 10.05 -5.55 0 -5.48 0 0 -26.43z"/>
  <path d="M236.93 303.83 l0 -15.99 5.55 0 5.55 0 0 2.09 0 2.02 1.50 -1.31 c2.28 -2.15 4.05 -2.81 7.24 -2.81 l3 0 0 4.90 0 4.90 -3.20 0 c-1.83 0 -3.46 0.33 -3.66 0.65 -0.20 0.39 -0.98 0.65 -1.70 0.65 -2.28 0 -3.20 3.59 -3.20 12.73 l0 8.16 -5.55 0 -5.55 0 0 -15.99z"/>
  <path d="M265 303.83 l0 -15.99 5.55 0 5.55 0 0 2.09 0 2.02 1.50 -1.37 c1.96 -1.83 5.81 -3.39 8.42 -3.39 2.81 0.07 7.24 2.09 8.55 3.92 l1.04 1.50 2.28 -2.02 c2.35 -2.02 5.87 -3.39 8.88 -3.39 3.13 0 7.31 2.74 8.94 5.81 1.44 2.68 1.50 3.66 1.50 14.88 l0 11.94 -5.55 0 -5.55 0 0 -9.07 c0 -8.81 -0.52 -12.21 -2.15 -13.25 -1.44 -0.91 -4.18 -0.52 -5.74 0.72 -1.50 1.17 -1.57 1.63 -1.76 11.42 l-0.26 10.18 -5.48 0 -5.48 0 0 -10.31 c0 -11.49 -0.39 -12.53 -4.31 -12.53 -4.18 0 -4.83 1.76 -4.83 13.32 l0 9.53 -5.55 0 -5.55 0 0 -15.99z"/>
  <path d="M366.82 303.83 l0 -15.99 5.55 0 5.55 0 0 2.09 0 2.02 1.50 -1.37 c3.52 -3.33 8.75 -4.18 13.18 -2.15 5.94 2.74 6.85 5.42 6.85 19.97 l0 11.42 -5.48 0 -5.48 0 -0.26 -10.05 c-0.20 -8.75 -0.33 -10.25 -1.44 -11.42 -1.76 -1.96 -5.22 -1.83 -7.24 0.26 -1.57 1.50 -1.63 1.83 -1.63 11.42 l0 9.79 -5.55 0 -5.55 0 0 -15.99z"/>
  <path d="M407.09 319.43 c-0.26 -0.26 -0.46 -7.51 -0.46 -16.06 l0 -15.53 5.48 0 5.48 0 0.46 5.42 c0.20 2.94 0.33 10.05 0.20 15.80 l-0.20 10.44 -5.22 0.20 c-2.94 0.07 -5.48 0 -5.74 -0.26z"/>
  <path d="M567.65 319.37 c-0.26 -0.20 -0.46 -12.14 -0.46 -26.43 l0 -25.98 5.87 0 5.87 0 0 26.43 0 26.43 -5.42 0 c-3 0 -5.68 -0.20 -5.87 -0.46z"/>
  <path d="M628.55 303.83 l0 -15.99 5.55 0 5.55 0 0 1.96 c0 2.15 0.72 2.48 2.02 0.91 1.44 -1.76 4.31 -2.87 7.44 -2.87 l2.94 0 0 4.90 0 4.90 -4.18 0 c-3.59 0 -4.37 0.20 -5.81 1.70 -1.70 1.63 -1.76 1.96 -1.89 10.97 l-0.20 9.20 -5.68 0.20 -5.74 0.20 0 -16.06z"/>
  <path d="M656.62 303.83 l0 -15.99 5.55 0 5.55 0 0 15.99 0 15.99 -5.55 0 -5.55 0 0 -15.99z"/>
  <path d="M676.20 308.73 l0 -11.10 -1.96 0 -1.96 0 0 -4.90 0 -4.90 1.96 0 1.96 0 0 -4.57 0 -4.57 5.55 0 5.55 0 0 4.57 0 4.57 3.26 0 3.26 0 0 4.90 0 4.90 -3.26 0 -3.26 0 0 11.10 0 11.10 -5.55 0 -5.55 0 0 -11.10z"/>
  <path d="M409.50 281.97 c-3.85 -1.57 -4.70 -6.79 -1.63 -9.86 2.55 -2.48 5.68 -2.55 8.49 -0.20 1.70 1.37 2.02 2.15 2.02 4.50 0 2.35 -0.33 3.13 -2.02 4.50 -2.02 1.70 -4.31 2.09 -6.85 1.04z"/>
  <path d="M657.86 280.79 c-2.87 -2.61 -2.87 -6.20 0.07 -8.81 1.83 -1.63 2.55 -1.83 4.76 -1.57 3.33 0.46 5.03 2.15 5.48 5.55 0.33 2.35 0.13 2.94 -1.63 4.70 -2.68 2.61 -5.81 2.68 -8.68 0.13z"/>
  <path d="M248.87 241.11 c-3.98 -1.44 -8.22 -5.48 -9.99 -9.53 -1.17 -2.74 -1.37 -4.24 -1.17 -7.38 0.52 -6.20 3.52 -10.57 9.27 -13.51 3.66 -1.89 12.14 -2.41 16.38 -0.98 8.81 3.07 13.32 11.88 10.64 20.95 -1.24 4.11 -6.53 9.14 -10.90 10.44 -4.37 1.31 -10.57 1.24 -14.23 0z m11.55 -10.64 c0.91 -0.65 1.89 -2.22 2.22 -3.52 1.50 -5.94 -4.44 -10.25 -10.05 -7.31 -3.72 1.89 -4.44 6.66 -1.63 10.05 2.48 2.87 6.14 3.20 9.46 0.78z"/>
  <path d="M367.80 241.56 c-7.38 -1.89 -12.01 -8.16 -12.07 -16.25 0 -7.05 3.13 -12.34 8.94 -14.95 4.50 -2.09 10.18 -1.89 13.25 0.33 1.04 0.78 2.09 1.44 2.28 1.44 0.20 0 0.33 -5.16 0.33 -11.42 l0 -11.42 5.55 0 5.55 0 0 25.78 0 25.78 -5.55 0 c-4.50 0 -5.55 -0.20 -5.55 -0.98 0 -1.31 -0.78 -1.24 -3.39 0.26 -2.55 1.57 -6.59 2.15 -9.33 1.44z m8.55 -9.86 c0.52 0 1.70 -0.72 2.55 -1.63 2.41 -2.41 2.28 -6.92 -0.26 -9.53 -3.66 -3.59 -10.38 -1.63 -11.49 3.33 -0.65 3 1.44 6.66 4.24 7.64 1.24 0.46 2.68 0.65 3.13 0.46 0.52 -0.13 1.31 -0.26 1.83 -0.26z"/>
  <path d="M444.88 241.17 c-3.79 -1.37 -5.74 -3 -7.38 -6.20 -1.37 -2.68 -1.50 -3.79 -1.50 -14.16 l0 -11.29 5.55 0 5.55 0 0 9.73 c0 8.81 0.13 9.86 1.37 11.42 1.04 1.31 1.89 1.70 3.85 1.70 1.96 0 2.81 -0.39 3.85 -1.70 1.24 -1.57 1.37 -2.61 1.37 -11.42 l0 -9.73 5.55 0 5.55 0 0 11.62 c0 10.77 -0.13 11.75 -1.50 14.16 -1.63 2.87 -4.70 5.22 -8.22 6.20 -3.33 0.91 -11.03 0.78 -14.03 -0.33z"/>
  <path d="M156.65 218.33 l0 -22.65 11.94 0.26 c11.49 0.20 12.01 0.26 15.60 2.02 8.22 4.05 12.86 12.53 12.07 22.32 -0.46 6.20 -2.74 11.10 -6.98 14.88 -5.61 5.09 -6.53 5.35 -20.36 5.55 l-12.27 0.20 0 -22.58z m21.54 11.10 c6.98 -3.52 7.90 -16.51 1.57 -21.02 -2.15 -1.50 -6.20 -2.81 -8.88 -2.81 l-1.83 0 0 12.27 c0 6.79 0.20 12.47 0.39 12.73 0.59 0.59 6.92 -0.26 8.75 -1.17z"/>
  <path d="M202.34 225.18 l0 -15.66 5.87 0 5.87 0 0 15.66 0 15.66 -5.87 0 -5.87 0 0 -15.66z"/>
  <path d="M220.61 215.06 l0 -25.78 5.81 0 5.87 0 0 25.78 0 25.78 -5.87 0 -5.81 0 0 -25.78z"/>
  <path d="M299.59 240.45 c0 -0.20 1.57 -2.61 3.46 -5.35 1.96 -2.81 5.03 -7.18 6.85 -9.86 1.89 -2.68 3.39 -5.09 3.39 -5.42 0 -0.26 -2.61 -0.52 -5.87 -0.52 l-5.87 0 0 -4.90 0 -4.90 15.34 0 c9.46 0 15.34 0.26 15.34 0.65 0 0.59 -4.24 6.98 -10.97 16.58 -1.50 2.15 -2.74 4.11 -2.74 4.44 0 0.26 2.94 0.52 6.53 0.52 l6.53 0 0 4.57 0 4.57 -15.99 0 c-8.81 0 -15.99 -0.20 -15.99 -0.39z"/>
  <path d="M398.80 225.18 l0 -15.66 5.55 0 5.55 0 0 15.66 0 15.66 -5.55 0 -5.55 0 0 -15.66z"/>
  <path d="M417.73 215.72 l0 -25.13 5.55 0 5.55 0 0 25.13 0 25.13 -5.55 0 -5.55 0 0 -25.13z"/>
  <path d="M205.14 203.77 l-2.74 -2.41 4.24 -4.90 c2.35 -2.68 4.44 -5.09 4.70 -5.35 0.26 -0.26 1.96 0.85 3.72 2.41 l3.26 2.87 -4.90 4.90 c-2.68 2.74 -5.03 4.96 -5.22 4.96 -0.20 -0.07 -1.57 -1.17 -3.07 -2.48z"/>
  <path d="M401.41 203.64 l-2.87 -2.48 4.76 -5.29 4.76 -5.29 2.48 1.96 c3.72 2.94 4.31 3.85 3.20 4.83 -0.52 0.46 -2.81 2.61 -5.16 4.76 l-4.24 3.98 -2.94 -2.48z"/>
  <path d="M449.25 204.29 c-3.26 -0.78 -5.22 -2.35 -6.07 -4.90 -0.65 -1.96 -0.59 -2.68 0.46 -4.70 3.85 -7.70 17.82 -5.68 17.82 2.55 0 3.85 -1.89 6.14 -5.94 6.98 -3.59 0.78 -3.33 0.78 -6.27 0.07z m5.55 -5.16 c0.52 -0.26 0.78 -1.24 0.65 -2.09 -0.20 -1.37 -0.52 -1.57 -3.13 -1.57 -2.61 0 -2.94 0.20 -3.13 1.57 -0.26 1.76 0.78 2.68 3.13 2.68 0.91 0 2.02 -0.26 2.48 -0.59z"/>
 </g>
</svg>